<svg width="19" height="18" viewBox="0 0 19 18" fill="none" xmlns="http://www.w3.org/2000/svg">
    <path d="M4.29583 17.488C4.19983 17.488 4.10383 17.44 4.00783 17.392C3.81583 17.248 3.76783 17.056 3.81583 16.864L5.68783 11.104L0.791832 7.50403C0.599832 7.36003 0.551832 7.16803 0.599832 6.97603C0.647832 6.78403 0.839832 6.64003 1.07983 6.64003H7.17583L8.99983 0.832033C9.04783 0.640033 9.23983 0.496033 9.47983 0.496033C9.71983 0.496033 9.86383 0.640033 9.95983 0.832033L11.8318 6.64003H17.9278C18.1198 6.64003 18.3118 6.73603 18.4078 6.92803C18.5038 7.12003 18.4078 7.36003 18.2158 7.45603L13.3198 11.008L15.1918 16.768C15.2398 16.96 15.1918 17.2 14.9998 17.296C14.8078 17.392 14.6158 17.44 14.4238 17.296L9.47983 13.84L4.58383 17.392C4.48783 17.44 4.39183 17.488 4.29583 17.488Z" fill="#2282A1"/>
</svg>
