<svg width="15" height="19" viewBox="0 0 15 19" fill="none" xmlns="http://www.w3.org/2000/svg">
    <path d="M14 16C14 16.7956 13.6839 17.5587 13.1213 18.1213C12.5587 18.6839 11.7956 19 11 19H4C3.20435 19 2.44129 18.6839 1.87868 18.1213C1.31607 17.5587 1 16.7956 1 16V4H0V1H4.5L5.5 0H9.5L10.5 1H15V4H14V16ZM2 4V16C2 16.5304 2.21071 17.0391 2.58579 17.4142C2.96086 17.7893 3.46957 18 4 18H11C11.5304 18 12.0391 17.7893 12.4142 17.4142C12.7893 17.0391 13 16.5304 13 16V4H2ZM14 3V2H10L9 1H6L5 2H1V3H14ZM4 6H5V16H4V6ZM10 6H11V16H10V6Z" fill="#AAAAAA"/>
</svg>