<svg width="179" height="97" viewBox="0 0 179 97" fill="none" xmlns="http://www.w3.org/2000/svg">
    <path d="M16.0998 56.8872H14.2702V36.1015H59.6423V40.8421H72.083V0H87.8168V1.82331H112.698V27.3496H110.869V3.64662H85.9873V1.82331H73.9125V42.6654H57.8128V37.9248H16.0998V56.8872Z" fill="#005390"/>
    <path d="M78.4863 13.3102V13.3467H79.1449V13.3102V13.2737C79.1449 13.0549 79.1815 12.8361 79.2181 12.7632C79.4011 11.4869 80.2426 10.9399 80.2426 10.9399C80.3158 10.9764 81.1208 11.6692 81.2672 12.7997C81.2672 12.8726 81.3038 13.0914 81.3404 13.3102V13.3467V13.3831H81.999V13.3467C81.999 12.2162 81.5233 11.414 81.0476 10.9399C80.6451 10.1376 80.572 9.18952 80.6451 8.27786C80.6817 7.40267 80.7183 6.27222 80.7549 5.39703C80.7549 4.92297 80.6451 4.48538 80.3524 4.08425C80.3158 4.04779 80.2792 4.01132 80.2426 3.97485C80.2426 3.97485 80.1695 4.04779 80.1329 4.08425C79.8036 4.48538 79.6938 4.92297 79.7304 5.39703C79.767 6.27222 79.8036 7.40267 79.8402 8.27786C79.8767 9.18952 79.8402 10.1012 79.4377 10.9034C78.962 11.3775 78.4863 12.1433 78.4863 13.3102Z" fill="#005390"/>
    <path d="M84.0114 5.21472C83.9749 5.21472 83.9749 5.21472 83.9749 5.21472C83.9383 5.21472 83.9017 5.25119 83.9017 5.25119C83.4992 5.50645 83.1699 5.79818 82.8771 6.16284C82.2917 6.89216 82.0356 7.69442 81.9624 8.60607C81.9258 9.08013 81.8526 9.59066 81.816 10.0647C81.7794 10.32 81.7794 10.5388 81.7428 10.794C81.999 10.7576 82.1819 10.8305 82.3283 10.9764C82.5478 11.1587 82.5844 11.4869 82.4015 11.7422C82.3283 11.8516 82.1819 11.9245 82.0722 11.9974C82.1453 12.1798 82.1819 12.3986 82.2185 12.6174H82.2551C82.7674 12.435 83.0601 12.1068 83.1699 11.5598C83.243 11.0858 82.9869 10.6117 82.5478 10.3565C82.4747 10.32 82.4381 10.2835 82.4746 10.1741C82.5478 9.62713 82.621 9.1166 82.6576 8.56961C82.6942 8.05908 82.8406 7.62149 83.0601 7.14743C83.1699 6.92863 83.4626 6.5275 83.4626 6.5275C83.4626 6.5275 83.4626 11.2681 83.4626 13.6019H80.9013V14.1854H81.3403C81.194 14.8053 80.9013 15.2065 80.6451 15.4617V13.4925C80.6817 13.3467 80.7915 13.1279 81.1208 13.0549H81.1574C81.1574 12.982 81.1208 12.8726 81.1208 12.8361C81.1208 12.6903 81.0842 12.5809 81.0476 12.4715C80.9744 12.508 80.9379 12.508 80.9013 12.508C80.6817 12.5809 80.3524 12.8726 80.2792 12.9091C80.206 12.8362 79.8767 12.5809 79.6572 12.508C79.6206 12.508 79.584 12.4715 79.5108 12.4715C79.4742 12.5809 79.4742 12.7268 79.4377 12.8361C79.4377 12.8726 79.4377 12.9455 79.4011 13.0549H79.4377C79.767 13.1643 79.8767 13.3467 79.9133 13.4925V15.4252C79.6572 15.17 79.3645 14.7689 79.2181 14.1854H79.6572V13.6019H77.0959V6.5275C77.0959 6.5275 77.3886 6.9651 77.4984 7.14743C77.7179 7.58502 77.8643 8.05908 77.9009 8.56961C77.9374 9.1166 78.0106 9.66359 78.0838 10.1741C78.0838 10.2471 78.0838 10.2835 78.0106 10.3565C77.5715 10.6117 77.3154 11.0858 77.3886 11.5598C77.4618 12.1068 77.7911 12.435 78.3033 12.6174H78.3399C78.3765 12.3986 78.4131 12.1798 78.4863 11.9974C78.3765 11.9245 78.2302 11.8516 78.157 11.7422C77.974 11.5234 78.0106 11.1952 78.2302 10.9764C78.3765 10.8305 78.5595 10.7576 78.8156 10.794C78.779 10.5388 78.779 10.32 78.7424 10.0647C78.7058 9.59066 78.6327 9.1166 78.5961 8.60607C78.5229 7.69442 78.2302 6.8557 77.6813 6.16284C77.3886 5.79818 77.0593 5.50645 76.6568 5.25119C76.6202 5.25119 76.5836 5.21472 76.5836 5.21472H76.547V14.1854H78.6327C78.962 15.6805 80.3158 16.3734 80.3158 16.3734C80.3158 16.3734 81.6697 15.717 81.999 14.1854H84.0846L84.0114 5.21472Z" fill="#005390"/>
    <path d="M108.966 10.3929H88.1827V5.72522H108.966V10.3929ZM89.2805 9.29891H107.868V6.81921H89.2805V9.29891Z" fill="#005390"/>
    <path d="M108.966 16.5921H88.1827V11.9244H108.966V16.5921ZM89.2805 15.4981H107.868V13.0184H89.2805V15.4981Z" fill="#005390"/>
    <path d="M108.966 22.7184H88.1827V18.0508H108.966V22.7184ZM89.2805 21.6245H107.868V19.1448H89.2805V21.6245Z" fill="#005390"/>
    <path d="M108.966 28.9905H88.1827V24.3229H108.966V28.9905ZM89.2805 27.8966H107.868V25.4169H89.2805V27.8966Z" fill="#005390"/>
    <path d="M4.13471 59.5492C4.13471 59.5492 24.918 55.2462 54.7392 66.4778C61.1425 69.0304 71.8634 73.771 71.8634 73.771C71.8634 73.771 34.1754 67.0248 16.612 69.2128C8.78168 70.3067 3.29313 71.2913 0 72.5676L4.13471 59.5492Z" fill="#005390"/>
    <path d="M94.5861 61.6278C94.5861 61.6278 97.6962 44.0146 112.515 29.7928C126.42 15.571 133.555 11.7421 133.555 11.7421L143.251 19.1447C143.251 19.1447 129.713 24.177 118.919 32.7466C108.124 41.3161 98.2451 54.8451 94.5861 61.6278Z" fill="#005390"/>
    <path d="M98.8671 64.4723C98.8671 63.1959 111.344 46.0569 121.663 39.8576C130.92 33.6584 139.885 27.9696 150.679 26.6569L158.29 34.9347C158.29 34.9347 145.373 35.4817 130.92 42.2279C111.784 49.8858 100.075 63.1595 98.8671 64.4723Z" fill="#005390"/>
    <path d="M102.746 68.3011C102.746 68.3011 117.199 54.0793 136.775 47.5883C154.667 41.6808 163.852 42.9206 163.852 42.9206L167.62 50.9432C167.62 50.9432 152.984 50.068 132.933 55.9026C123.163 58.747 107.027 65.4567 102.746 68.3011Z" fill="#005390"/>
    <path d="M104.465 73.844C104.465 73.844 125.249 64.6181 136.775 61.6278C148.301 58.6376 164.51 57.6895 172.377 59.5128L177.061 72.3853C177.061 72.3853 164.986 67.8271 142.483 68.994C119.98 70.1609 104.465 73.844 104.465 73.844Z" fill="#005390"/>
    <path d="M104.502 74.0263L104.392 73.6981C104.612 73.5887 125.285 64.4357 136.702 61.482C148.118 58.4917 164.437 57.5436 172.377 59.3669L172.487 59.4034L172.523 59.5128L177.317 72.75L176.951 72.6041C176.841 72.5677 164.657 68.0823 142.446 69.2492C120.199 70.3797 104.648 73.9899 104.502 74.0263ZM161.693 58.7835C153.789 58.7835 144.239 59.8774 136.775 61.8102C127.298 64.2899 111.344 71.0361 106.185 73.297C110.905 72.3124 124.48 69.7962 142.373 68.8481C162.534 67.7906 174.463 71.3643 176.658 72.0936L172.158 59.6951C169.486 59.0752 165.827 58.7835 161.693 58.7835Z" fill="#005390"/>
    <path d="M78.5229 75.4849C78.5229 75.4849 80.5354 68.1552 88.1461 68.0094C95.7569 67.8635 98.2085 74.0263 98.428 75.4849H101.721L103.587 74.1721L103.075 72.2394L101.099 72.3488C101.099 72.3488 99.8916 71.7289 100.733 70.9996C101.575 70.2703 101.611 69.9785 101.611 69.9785L100.66 68.2282L99.233 68.6293C99.233 68.6293 97.184 69.2492 98.0255 67.4259C98.8671 65.6026 98.6842 66.1496 98.6842 66.1496L97.184 64.8003L95.9765 66.0037C95.9765 66.0037 94.2933 66.8789 94.2567 65.3109C94.2201 63.7428 94.2201 63.4876 94.2201 63.4876C94.2201 63.4876 92.4638 62.8676 92.537 63.0135C92.6102 63.1594 90.122 68.5199 89.4634 62.6853H87.4509C87.4509 62.6853 87.3412 68.1188 84.4139 63.1594L82.621 63.6334C82.621 63.6334 83.6455 68.6293 80.0963 64.9462L78.2667 66.259C78.2667 66.259 81.4867 70.8173 76.1811 68.3011L75.0102 69.9056C75.0102 69.9056 78.2302 73.0052 73.8027 72.2759C73.8027 72.2759 73.4368 74.2086 73.2539 74.2086C73.0709 74.2086 74.6809 75.5214 74.6809 75.5214H78.5229V75.4849Z" fill="#005390"/>
    <path d="M6.51309 86.0967C6.51309 86.1331 6.51309 86.1696 6.4765 86.2061C6.43991 86.2425 6.40332 86.2425 6.33013 86.279C6.25695 86.3155 6.18377 86.3155 6.074 86.3155C5.96423 86.3155 5.85446 86.3155 5.67151 86.3155C5.52515 86.3155 5.37879 86.3155 5.26901 86.3155C5.15924 86.3155 5.08606 86.279 5.01288 86.279C4.9397 86.279 4.90311 86.2425 4.86652 86.2061C4.82993 86.1696 4.82993 86.1331 4.82993 86.0967V83.5076C4.61039 83.544 4.39085 83.544 4.1713 83.544C3.95176 83.544 3.73222 83.5805 3.51268 83.5805C3.07359 83.5805 2.63451 83.544 2.26861 83.4711C1.9027 83.3982 1.57339 83.2523 1.31726 83.07C1.06112 82.8876 0.841583 82.6324 0.695221 82.3042C0.54886 81.976 0.475679 81.5749 0.475679 81.0643V78.8764C0.475679 78.8399 0.475679 78.8034 0.51227 78.767C0.54886 78.7305 0.58545 78.7305 0.658631 78.694C0.731812 78.6576 0.804992 78.6576 0.914763 78.6576C1.02453 78.6576 1.13431 78.6576 1.31726 78.6576C1.46362 78.6576 1.60998 78.6576 1.71975 78.6576C1.82952 78.6576 1.9027 78.694 1.97588 78.694C2.04906 78.7305 2.08565 78.7305 2.12224 78.767C2.15884 78.8034 2.15884 78.8399 2.15884 78.8764V80.882C2.15884 81.1008 2.19543 81.3196 2.23202 81.5019C2.26861 81.6843 2.37838 81.8301 2.48815 81.9395C2.59792 82.0489 2.78087 82.1218 2.96382 82.1948C3.14677 82.2677 3.40291 82.2677 3.69563 82.2677C3.87858 82.2677 4.06153 82.2677 4.24449 82.2312C4.42744 82.2312 4.61039 82.1948 4.79334 82.1948V78.8399C4.79334 78.8034 4.79334 78.767 4.82993 78.7305C4.86652 78.694 4.90311 78.694 4.97629 78.6576C5.04947 78.6211 5.12265 78.6211 5.23242 78.6211C5.3422 78.6211 5.48856 78.6211 5.63492 78.6211C5.78128 78.6211 5.92764 78.6211 6.03741 78.6211C6.14718 78.6211 6.22036 78.6576 6.29355 78.6576C6.36673 78.694 6.40332 78.694 6.43991 78.7305C6.4765 78.767 6.4765 78.8034 6.4765 78.8399V86.0967H6.51309Z" fill="#005390"/>
    <path d="M12.9896 85.6955C12.9896 85.8049 12.9896 85.9143 12.9896 85.9872C12.9896 86.0602 12.953 86.1331 12.953 86.1696C12.9164 86.206 12.9164 86.2425 12.8798 86.279C12.8432 86.3154 12.8066 86.3154 12.77 86.3154H8.63532C8.48896 86.3154 8.37919 86.279 8.26941 86.206C8.15964 86.1331 8.12305 86.0237 8.12305 85.8414V79.2045C8.12305 79.0222 8.15964 78.9128 8.26941 78.8399C8.37919 78.7669 8.48896 78.7305 8.63532 78.7305H12.6968C12.7334 78.7305 12.77 78.7305 12.8066 78.7669C12.8432 78.8034 12.8432 78.8034 12.8798 78.8763C12.9164 78.9128 12.9164 78.9857 12.9164 79.0587C12.9164 79.1316 12.9164 79.241 12.9164 79.3504C12.9164 79.4598 12.9164 79.5692 12.9164 79.6421C12.9164 79.7151 12.8798 79.788 12.8798 79.8245C12.8798 79.8609 12.8432 79.8974 12.8066 79.9339C12.77 79.9703 12.7334 79.9703 12.6968 79.9703H9.76962V81.8301H12.2212C12.2578 81.8301 12.2944 81.8301 12.3309 81.8666C12.3675 81.903 12.4041 81.9395 12.4041 81.976C12.4407 82.0124 12.4407 82.0854 12.4407 82.1583C12.4407 82.2312 12.4407 82.3406 12.4407 82.45C12.4407 82.5594 12.4407 82.6688 12.4407 82.7417C12.4407 82.8147 12.4041 82.8876 12.4041 82.9241C12.3675 82.9605 12.3675 82.997 12.3309 83.0335C12.2944 83.0699 12.2578 83.0699 12.2212 83.0699H9.76962V85.2214H12.6968C12.7334 85.2214 12.77 85.2214 12.8066 85.2579C12.8432 85.2944 12.8798 85.3308 12.8798 85.3673C12.9164 85.4038 12.9164 85.4767 12.9164 85.5496C12.9896 85.4767 12.9896 85.5861 12.9896 85.6955Z" fill="#005390"/>
    <path d="M19.9417 81.0278C19.9417 81.4654 19.8686 81.8301 19.7222 82.1583C19.5758 82.4865 19.3563 82.7782 19.1002 82.997C18.844 83.2158 18.4781 83.3981 18.0756 83.5075C17.6731 83.6169 17.1975 83.6899 16.6852 83.6899H15.99V86.1331C15.99 86.1696 15.99 86.206 15.9534 86.2425C15.9168 86.279 15.8802 86.3154 15.807 86.3154C15.7338 86.3519 15.6607 86.3519 15.5509 86.3519C15.4411 86.3519 15.2948 86.3519 15.1484 86.3519C15.002 86.3519 14.8557 86.3519 14.7459 86.3519C14.6361 86.3519 14.563 86.3154 14.4898 86.3154C14.4166 86.279 14.38 86.279 14.3434 86.2425C14.3068 86.206 14.3068 86.1696 14.3068 86.1331V79.2775C14.3068 79.0951 14.3434 78.9493 14.4532 78.8763C14.563 78.7669 14.7093 78.7305 14.8557 78.7305H16.8316C17.0145 78.7305 17.1975 78.7305 17.3804 78.7669C17.5634 78.7669 17.7463 78.8034 18.0024 78.8399C18.2586 78.8763 18.4781 78.9857 18.7343 79.0951C18.9904 79.2045 19.2099 79.3869 19.3929 79.5692C19.5758 79.7515 19.7222 79.9703 19.7954 80.2256C19.9051 80.4079 19.9417 80.6996 19.9417 81.0278ZM18.1854 81.1372C18.1854 80.882 18.1488 80.6632 18.039 80.4808C17.9293 80.2985 17.8195 80.1891 17.6731 80.1162C17.5268 80.0433 17.3804 79.9703 17.1975 79.9703C17.0511 79.9339 16.8681 79.9339 16.6852 79.9339H15.99V82.523H16.7218C16.9779 82.523 17.1975 82.4865 17.3804 82.4136C17.5634 82.3406 17.7097 82.2677 17.8195 82.1218C17.9293 82.0124 18.0024 81.8666 18.0756 81.6842C18.1854 81.5019 18.1854 81.3196 18.1854 81.1372Z" fill="#005390"/>
    <path d="M27.4794 86.0966C27.4794 86.1331 27.4794 86.1695 27.4428 86.206C27.4062 86.2425 27.3696 86.2789 27.2964 86.2789C27.2232 86.3154 27.15 86.3154 27.0403 86.3154C26.9305 86.3154 26.8207 86.3154 26.6378 86.3154C26.4914 86.3154 26.3451 86.3154 26.2353 86.3154C26.1255 86.3154 26.0523 86.2789 25.9791 86.2789C25.906 86.2425 25.8694 86.2425 25.8328 86.206C25.7962 86.1695 25.7962 86.1331 25.7962 86.0966V83.0334H22.7226V86.0966C22.7226 86.1331 22.7226 86.1695 22.686 86.206C22.6494 86.2425 22.6128 86.2789 22.5397 86.2789C22.4665 86.2789 22.3933 86.3154 22.2835 86.3154C22.1737 86.3154 22.0274 86.3154 21.881 86.3154C21.7347 86.3154 21.5883 86.3154 21.4785 86.3154C21.3688 86.3154 21.2956 86.2789 21.2224 86.2789C21.1492 86.2425 21.1126 86.2425 21.076 86.206C21.0394 86.1695 21.0394 86.1331 21.0394 86.0966V78.9128C21.0394 78.8763 21.0394 78.8398 21.076 78.8034C21.1126 78.7669 21.1492 78.7304 21.2224 78.7304C21.2956 78.694 21.3688 78.694 21.4785 78.694C21.5883 78.694 21.7347 78.694 21.881 78.694C22.0274 78.694 22.1737 78.694 22.2835 78.694C22.3933 78.694 22.4665 78.7304 22.5397 78.7304C22.6128 78.7304 22.6494 78.7669 22.686 78.8034C22.7226 78.8398 22.7226 78.8763 22.7226 78.9128V81.7207H25.7962V78.9128C25.7962 78.8763 25.7962 78.8398 25.8328 78.8034C25.8694 78.7669 25.906 78.7304 25.9791 78.7304C26.0523 78.694 26.1255 78.694 26.2353 78.694C26.3451 78.694 26.4914 78.694 26.6378 78.694C26.7841 78.694 26.9305 78.694 27.0403 78.694C27.15 78.694 27.2232 78.7304 27.2964 78.7304C27.3696 78.7669 27.4062 78.7669 27.4428 78.8034C27.4794 78.8398 27.4794 78.8763 27.4794 78.9128V86.0966Z" fill="#005390"/>
    <path d="M30.7725 86.0966C30.7725 86.1331 30.7725 86.1695 30.7359 86.206C30.6993 86.2425 30.6627 86.2789 30.5895 86.2789C30.5164 86.2789 30.4432 86.3154 30.3334 86.3154C30.2236 86.3154 30.0773 86.3154 29.9309 86.3154C29.7846 86.3154 29.6382 86.3154 29.5284 86.3154C29.4186 86.3154 29.3455 86.2789 29.2723 86.2789C29.1991 86.2425 29.1625 86.2425 29.1259 86.206C29.0893 86.1695 29.0893 86.1331 29.0893 86.0966V78.9128C29.0893 78.8763 29.0893 78.8398 29.1259 78.8034C29.1625 78.7669 29.1991 78.7304 29.2723 78.7304C29.3455 78.694 29.4186 78.694 29.5284 78.694C29.6382 78.694 29.748 78.694 29.9309 78.694C30.0773 78.694 30.2236 78.694 30.3334 78.694C30.4432 78.694 30.5164 78.7304 30.5895 78.7304C30.6627 78.7304 30.6993 78.7669 30.7359 78.8034C30.7725 78.8398 30.7725 78.8763 30.7725 78.9128V86.0966Z" fill="#005390"/>
    <path d="M37.066 79.3504C37.066 79.4598 37.066 79.5692 37.066 79.6421C37.066 79.715 37.0294 79.7879 37.0294 79.8244C36.9928 79.8609 36.9928 79.8973 36.9563 79.9338C36.9197 79.9703 36.8831 79.9703 36.8465 79.9703H34.1388V86.0966C34.1388 86.1331 34.1388 86.1695 34.1022 86.206C34.0656 86.2425 34.029 86.2425 33.9558 86.2789C33.8827 86.3154 33.8095 86.3154 33.6997 86.3154C33.5899 86.3154 33.4436 86.3154 33.2972 86.3154C33.1509 86.3154 33.0045 86.3154 32.8947 86.3154C32.785 86.3154 32.7118 86.2789 32.6386 86.2789C32.5654 86.2425 32.5288 86.2425 32.4922 86.206C32.4556 86.1695 32.4556 86.1331 32.4556 86.0966V79.168C32.4556 78.9857 32.4922 78.8763 32.602 78.8034C32.6752 78.7304 32.8215 78.694 32.9679 78.694H36.8465C36.9197 78.694 36.9928 78.7304 37.0294 78.8398C37.066 78.9492 37.066 79.0951 37.066 79.3504Z" fill="#005390"/>
    <path d="M39.5542 86.0966C39.5542 86.1331 39.5542 86.1695 39.5176 86.206C39.481 86.2425 39.4444 86.2789 39.3712 86.2789C39.298 86.2789 39.2249 86.3154 39.1151 86.3154C39.0053 86.3154 38.859 86.3154 38.7126 86.3154C38.5662 86.3154 38.4199 86.3154 38.3101 86.3154C38.2003 86.3154 38.1271 86.2789 38.054 86.2789C37.9808 86.2425 37.9442 86.2425 37.9076 86.206C37.871 86.1695 37.871 86.1331 37.871 86.0966V78.9128C37.871 78.8763 37.871 78.8398 37.9076 78.8034C37.9442 78.7669 37.9808 78.7304 38.054 78.7304C38.1271 78.694 38.2003 78.694 38.3101 78.694C38.4199 78.694 38.5296 78.694 38.7126 78.694C38.859 78.694 39.0053 78.694 39.1151 78.694C39.2249 78.694 39.298 78.7304 39.3712 78.7304C39.4444 78.7304 39.481 78.7669 39.5176 78.8034C39.5542 78.8398 39.5542 78.8763 39.5542 78.9128V86.0966Z" fill="#005390"/>
    <path d="M47.1284 84.0181C47.1284 84.2733 47.0918 84.5286 47.0186 84.7474C46.9454 84.9662 46.8357 85.1485 46.6893 85.3308C46.5429 85.5132 46.3966 85.659 46.177 85.7684C45.9575 85.8778 45.7745 85.9872 45.5184 86.0602C45.2989 86.1331 45.0427 86.206 44.75 86.2425C44.4939 86.279 44.2012 86.3154 43.8718 86.3154H41.713C41.5666 86.3154 41.4569 86.279 41.3471 86.206C41.2373 86.1331 41.2007 86.0237 41.2007 85.8414V79.2045C41.2007 79.0222 41.2373 78.9128 41.3471 78.8399C41.4569 78.7669 41.5666 78.7305 41.713 78.7305H43.7621C44.2743 78.7305 44.6768 78.7669 45.0427 78.8399C45.372 78.9128 45.6648 79.0222 45.9209 79.2045C46.1404 79.3504 46.3234 79.5692 46.4698 79.8245C46.5795 80.0797 46.6527 80.3714 46.6527 80.6996C46.6527 80.882 46.6161 81.0643 46.5795 81.2102C46.5429 81.356 46.4698 81.5384 46.36 81.6478C46.2502 81.7572 46.1404 81.903 45.9941 82.0124C45.8477 82.1218 45.7014 82.1948 45.5184 82.2677C45.7379 82.3042 45.9575 82.3771 46.177 82.4865C46.36 82.5959 46.5429 82.7053 46.6893 82.8511C46.8357 82.997 46.9454 83.1793 47.0186 83.3981C47.0918 83.544 47.1284 83.7628 47.1284 84.0181ZM45.0061 80.809C45.0061 80.6632 44.9696 80.5173 44.933 80.4079C44.8964 80.2985 44.8232 80.1891 44.7134 80.1162C44.6036 80.0433 44.4939 79.9703 44.3475 79.9339C44.2012 79.8974 43.9816 79.8609 43.7255 79.8609H42.8839V81.8301H43.7987C44.0548 81.8301 44.2377 81.7936 44.3841 81.7572C44.5305 81.7207 44.6402 81.6478 44.75 81.5384C44.8598 81.429 44.933 81.356 44.9696 81.2102C44.9696 81.1008 45.0061 80.9549 45.0061 80.809ZM45.4086 84.091C45.4086 83.9087 45.372 83.7628 45.2989 83.6169C45.2257 83.4711 45.1525 83.3617 45.0061 83.2523C44.8964 83.1429 44.7134 83.0699 44.5305 83.0335C44.3475 82.997 44.0914 82.9605 43.7987 82.9605H42.8107V85.112H44.0182C44.2377 85.112 44.4573 85.0756 44.6036 85.0391C44.75 85.0026 44.8964 84.9297 45.0061 84.8568C45.1159 84.7839 45.2257 84.6745 45.2623 84.5286C45.372 84.3827 45.4086 84.2369 45.4086 84.091Z" fill="#005390"/>
    <path d="M53.9708 85.1485C53.9708 85.2579 53.9708 85.3308 53.9708 85.4037C53.9708 85.4767 53.9708 85.5131 53.9342 85.5861C53.9342 85.6225 53.8976 85.6955 53.8976 85.6955C53.8976 85.6955 53.861 85.7684 53.7878 85.8049C53.7512 85.8413 53.6415 85.9143 53.5317 85.9872C53.3853 86.0601 53.239 86.1331 53.056 86.206C52.8731 86.2789 52.6535 86.3154 52.3974 86.3519C52.1413 86.3883 51.8851 86.4248 51.5924 86.4248C51.0435 86.4248 50.5313 86.3519 50.0922 86.1695C49.6531 85.9872 49.2506 85.7684 48.9579 85.4402C48.6286 85.112 48.409 84.7109 48.2261 84.2368C48.0431 83.7628 47.97 83.2158 47.97 82.5594C47.97 81.903 48.0797 81.356 48.2627 80.8455C48.4456 80.3349 48.7018 79.9338 49.0311 79.5691C49.3604 79.241 49.7629 78.9857 50.2386 78.8034C50.7142 78.621 51.2265 78.5481 51.7753 78.5481C51.9949 78.5481 52.2144 78.5481 52.434 78.5846C52.6535 78.621 52.8365 78.6575 53.0194 78.7304C53.2024 78.8034 53.3487 78.8398 53.4951 78.9128C53.6415 78.9857 53.7512 79.0586 53.7878 79.0951C53.861 79.1316 53.8976 79.2045 53.8976 79.241C53.8976 79.2774 53.9342 79.3139 53.9342 79.3868C53.9342 79.4598 53.9708 79.4962 53.9708 79.5691C53.9708 79.6421 53.9708 79.7515 53.9708 79.8609C53.9708 79.9703 53.9708 80.0797 53.9708 80.1526C53.9708 80.2255 53.9342 80.2985 53.9342 80.3349C53.8976 80.3714 53.8976 80.4079 53.861 80.4443C53.8244 80.4808 53.7878 80.4808 53.7512 80.4808C53.678 80.4808 53.6049 80.4443 53.4951 80.3714C53.3853 80.2985 53.2756 80.2255 53.1292 80.1526C52.9828 80.0797 52.7999 80.0067 52.5803 79.9338C52.3608 79.8609 52.1047 79.8244 51.8119 79.8244C51.4826 79.8244 51.1899 79.8973 50.9338 80.0067C50.6776 80.1161 50.4581 80.2985 50.2751 80.5537C50.0922 80.7725 49.9458 81.0643 49.8727 81.3925C49.7629 81.7207 49.7263 82.0853 49.7263 82.4864C49.7263 82.924 49.7629 83.3252 49.8727 83.6534C49.9824 83.9816 50.1288 84.2368 50.3117 84.4556C50.4947 84.6744 50.7142 84.8203 50.9704 84.9297C51.2265 85.0391 51.5192 85.0755 51.8485 85.0755C52.1413 85.0755 52.3974 85.0391 52.6169 84.9661C52.8365 84.8932 53.0194 84.8203 53.1658 84.7473C53.3121 84.6744 53.4585 84.6015 53.5317 84.5285C53.6415 84.4556 53.7146 84.4192 53.7512 84.4192C53.7878 84.4192 53.8244 84.4192 53.861 84.4556C53.8976 84.4556 53.8976 84.4921 53.9342 84.565C53.9708 84.6379 53.9708 84.6744 53.9708 84.7473C53.9708 84.8932 53.9708 85.0026 53.9708 85.1485Z" fill="#005390"/>
    <path d="M61.0327 83.7992C61.0327 84.1639 60.9595 84.4921 60.8498 84.7838C60.74 85.0755 60.557 85.3308 60.3009 85.5861C60.0448 85.8049 59.7155 85.9872 59.2764 86.1331C58.8739 86.2789 58.2884 86.3154 57.5566 86.3154H55.5076C55.4344 86.3154 55.3612 86.3154 55.3246 86.2789C55.2514 86.2789 55.2148 86.2425 55.1783 86.206C55.1417 86.1695 55.1051 86.0966 55.0685 86.0601C55.0319 85.9872 55.0319 85.9143 55.0319 85.8413V78.9128C55.0319 78.8763 55.0319 78.8398 55.0685 78.8034C55.1051 78.7669 55.1417 78.7669 55.2148 78.7304C55.288 78.694 55.3612 78.694 55.471 78.694C55.5807 78.694 55.7271 78.694 55.8735 78.694C56.0198 78.694 56.1662 78.694 56.276 78.694C56.3857 78.694 56.4589 78.7304 56.5321 78.7304C56.6053 78.7304 56.6419 78.7669 56.6785 78.8034C56.715 78.8398 56.715 78.8763 56.715 78.9128V81.5019H57.8493C58.4714 81.5019 58.9471 81.5383 59.313 81.6477C59.6789 81.7571 59.9716 81.903 60.2277 82.0853C60.4839 82.2676 60.6668 82.5229 60.8132 82.8146C60.9595 83.1064 61.0327 83.4346 61.0327 83.7992ZM59.313 83.9086C59.313 83.7263 59.2764 83.544 59.2398 83.3981C59.2032 83.2522 59.0934 83.1064 58.9836 83.0334C58.8739 82.924 58.6909 82.8511 58.508 82.7782C58.325 82.7052 58.0323 82.7052 57.6664 82.7052H56.715V85.112H57.703C58.1055 85.112 58.3982 85.0755 58.5812 85.0026C58.7641 84.9297 58.9471 84.8203 59.0568 84.7109C59.1666 84.6015 59.2398 84.4556 59.2764 84.3097C59.313 84.1639 59.313 84.0545 59.313 83.9086Z" fill="#005390"/>
    <path d="M68.0947 86.0966C68.0947 86.133 68.0947 86.1695 68.0581 86.206C68.0215 86.2424 67.9849 86.2424 67.9117 86.2789C67.8385 86.3154 67.7653 86.3154 67.6556 86.3154C67.5458 86.3154 67.3994 86.3154 67.2165 86.3154C67.0335 86.3154 66.8872 86.3154 66.7774 86.3154C66.6676 86.3154 66.5944 86.2789 66.5213 86.2789C66.4481 86.2424 66.4115 86.2424 66.3749 86.206C66.3383 86.1695 66.3017 86.133 66.3017 86.0601L65.6431 84.3827C65.5333 84.1274 65.4602 83.9451 65.3504 83.7627C65.2406 83.5804 65.1308 83.471 65.0211 83.3616C64.9113 83.2522 64.7649 83.1793 64.6186 83.1428C64.4722 83.1063 64.2893 83.0699 64.1063 83.0699H63.7404V86.0966C63.7404 86.133 63.7404 86.1695 63.7038 86.206C63.6672 86.2424 63.6306 86.2789 63.5575 86.2789C63.4843 86.3154 63.4111 86.3154 63.3013 86.3154C63.1915 86.3154 63.0452 86.3154 62.8988 86.3154C62.7525 86.3154 62.6061 86.3154 62.4963 86.3154C62.3866 86.3154 62.3134 86.2789 62.2402 86.2789C62.167 86.2424 62.1304 86.2424 62.0938 86.206C62.0572 86.1695 62.0573 86.133 62.0573 86.0966V78.9127C62.0573 78.8763 62.0572 78.8398 62.0938 78.8033C62.1304 78.7669 62.167 78.7669 62.2402 78.7304C62.3134 78.6939 62.3866 78.6939 62.4963 78.6939C62.6061 78.6939 62.7525 78.6939 62.8988 78.6939C63.0452 78.6939 63.1915 78.6939 63.3013 78.6939C63.4111 78.6939 63.4843 78.7304 63.5575 78.7304C63.6306 78.7304 63.6672 78.7669 63.7038 78.8033C63.7404 78.8398 63.7404 78.8763 63.7404 78.9127V81.7571H64.1063C64.2893 81.7571 64.4722 81.7206 64.6186 81.6842C64.7649 81.6477 64.8747 81.5748 65.0211 81.4654C65.1308 81.356 65.2406 81.2466 65.3504 81.0642C65.4602 80.9184 65.5333 80.6996 65.6431 80.4443L66.192 78.9127C66.2285 78.8763 66.2285 78.8033 66.2651 78.7669C66.3017 78.7304 66.3383 78.6939 66.4115 78.6939C66.4847 78.6575 66.5579 78.6575 66.6676 78.6575C66.7774 78.6575 66.9238 78.6575 67.1067 78.6575C67.2531 78.6575 67.3994 78.6575 67.5092 78.6575C67.619 78.6575 67.6922 78.6939 67.7653 78.6939C67.8385 78.6939 67.8751 78.7304 67.8751 78.7669C67.9117 78.8033 67.9117 78.8398 67.9117 78.8763C67.9117 78.9127 67.9117 78.9857 67.8751 79.0586C67.8385 79.1315 67.8385 79.2409 67.7653 79.3503L67.2165 80.6996C67.1067 80.9548 66.9969 81.1736 66.9238 81.356C66.814 81.5383 66.7042 81.6842 66.5944 81.7936C66.4847 81.903 66.3749 82.0124 66.2285 82.0853C66.1188 82.1582 65.9724 82.2312 65.826 82.2676C66.009 82.3406 66.1554 82.4135 66.3017 82.4864C66.4481 82.5593 66.5579 82.6687 66.7042 82.8146C66.814 82.9605 66.9238 83.1063 67.0335 83.2887C67.1433 83.471 67.2531 83.7263 67.3628 83.9815L68.0215 85.5496C68.0946 85.6954 68.1312 85.8048 68.1312 85.8778C68.0947 86.0236 68.0947 86.0601 68.0947 86.0966Z" fill="#005390"/>
    <path d="M75.8518 86.0966C75.8518 86.1331 75.8518 86.1695 75.8152 86.206C75.7786 86.2425 75.742 86.2425 75.6688 86.2789C75.5957 86.3154 75.5225 86.3154 75.4127 86.3154C75.3029 86.3154 75.1566 86.3154 75.0102 86.3154C74.8638 86.3154 74.7175 86.3154 74.6077 86.3154C74.4979 86.3154 74.4248 86.2789 74.3516 86.2789C74.2784 86.2425 74.2418 86.2425 74.2052 86.206C74.1686 86.1695 74.1686 86.1331 74.1686 86.0966V82.0853C74.1686 81.9395 74.1686 81.7936 74.1686 81.6477C74.1686 81.5019 74.1686 81.356 74.2052 81.2466C74.1686 81.3195 74.132 81.356 74.0954 81.4289C74.0589 81.5019 73.9857 81.5748 73.9491 81.6477C73.9125 81.7207 73.8393 81.7936 73.7661 81.903C73.693 81.9759 73.6564 82.0853 73.5832 82.1582L70.7291 86.0966C70.6925 86.1331 70.656 86.1695 70.6194 86.206C70.5828 86.2425 70.5462 86.2789 70.473 86.2789C70.3998 86.2789 70.3632 86.3154 70.2535 86.3154C70.1803 86.3154 70.0705 86.3154 69.9241 86.3154C69.7778 86.3154 69.6314 86.3154 69.5217 86.3154C69.4119 86.3154 69.3387 86.2789 69.3021 86.2789C69.2655 86.2789 69.1923 86.2425 69.1923 86.206C69.1923 86.1695 69.1557 86.1331 69.1557 86.0966V78.9128C69.1557 78.8763 69.1557 78.8398 69.1923 78.8034C69.2289 78.7669 69.2655 78.7669 69.3387 78.7304C69.4119 78.694 69.4851 78.694 69.5948 78.694C69.7046 78.694 69.8144 78.694 69.9973 78.694C70.1437 78.694 70.29 78.694 70.3998 78.694C70.5096 78.694 70.5828 78.7304 70.656 78.7304C70.7291 78.7304 70.7657 78.7669 70.8023 78.8034C70.8389 78.8398 70.8389 78.8763 70.8389 78.9128V82.9605C70.8389 83.0699 70.8389 83.2158 70.8389 83.3616C70.8389 83.5075 70.8389 83.6534 70.8023 83.7628C70.8755 83.6534 70.9487 83.5075 71.0584 83.3252C71.1682 83.1428 71.278 82.997 71.3878 82.8511L74.2418 78.9128C74.2784 78.8763 74.315 78.8398 74.3516 78.8034C74.3882 78.7669 74.4248 78.7669 74.4979 78.7304C74.5711 78.694 74.6077 78.694 74.7175 78.694C74.8273 78.694 74.9004 78.694 75.0468 78.694C75.1932 78.694 75.3395 78.694 75.4493 78.694C75.5591 78.694 75.6322 78.7304 75.6688 78.7304C75.7054 78.7304 75.7786 78.7669 75.7786 78.8034C75.8152 78.8398 75.8152 78.8763 75.8152 78.9128V86.0966H75.8518Z" fill="#005390"/>
    <path d="M84.1578 86.0966C84.1578 86.1331 84.1578 86.1696 84.1212 86.206C84.0846 86.2425 84.048 86.2425 83.9749 86.279C83.9017 86.3154 83.8285 86.3154 83.7187 86.3154C83.609 86.3154 83.4626 86.3154 83.3162 86.3154C83.1699 86.3154 83.0235 86.3154 82.9137 86.3154C82.804 86.3154 82.7308 86.279 82.6576 86.279C82.5844 86.2425 82.5478 86.2425 82.5112 86.206C82.4746 86.1696 82.4746 86.1331 82.4746 86.0966V82.0854C82.4746 81.9395 82.4746 81.7936 82.4746 81.6478C82.4746 81.5019 82.4746 81.356 82.5112 81.2466C82.4746 81.3196 82.4381 81.356 82.4015 81.429C82.3649 81.5019 82.2917 81.5748 82.2551 81.6478C82.2185 81.7207 82.1453 81.7936 82.0722 81.903C81.999 81.976 81.9624 82.0854 81.8892 82.1583L79.0351 86.0966C78.9986 86.1331 78.962 86.1696 78.9254 86.206C78.8888 86.2425 78.8522 86.279 78.779 86.279C78.7058 86.279 78.6692 86.3154 78.5595 86.3154C78.4863 86.3154 78.3765 86.3154 78.2302 86.3154C78.0838 86.3154 77.9374 86.3154 77.8277 86.3154C77.7179 86.3154 77.6447 86.279 77.6081 86.279C77.5715 86.279 77.4984 86.2425 77.4984 86.206C77.4984 86.1696 77.4618 86.1331 77.4618 86.0966V78.9128C77.4618 78.8763 77.4618 78.8399 77.4984 78.8034C77.5349 78.7669 77.5715 78.7669 77.6447 78.7305C77.7179 78.694 77.7911 78.694 77.9008 78.694C78.0106 78.694 78.1204 78.694 78.3033 78.694C78.4497 78.694 78.5961 78.694 78.7058 78.694C78.8156 78.694 78.8888 78.7305 78.962 78.7305C79.0352 78.7305 79.0717 78.7669 79.1083 78.8034C79.1449 78.8399 79.1449 78.8763 79.1449 78.9128V82.9605C79.1449 83.0699 79.1449 83.2158 79.1449 83.3617C79.1449 83.5075 79.1449 83.6534 79.1083 83.7628C79.1815 83.6534 79.2547 83.5075 79.3645 83.3252C79.4742 83.1429 79.584 82.997 79.6938 82.8511L82.5478 78.9128C82.5844 78.8763 82.621 78.8399 82.6576 78.8034C82.6942 78.7669 82.7308 78.7669 82.804 78.7305C82.8771 78.694 82.9137 78.694 83.0235 78.694C83.1333 78.694 83.2065 78.694 83.3528 78.694C83.4992 78.694 83.6455 78.694 83.7553 78.694C83.8651 78.694 83.9383 78.7305 83.9749 78.7305C84.0114 78.7305 84.0846 78.7669 84.0846 78.8034C84.1212 78.8399 84.1212 78.8763 84.1212 78.9128V86.0966H84.1578ZM83.1699 76.6519C83.1699 76.8707 83.1333 77.0895 83.0601 77.2718C82.9869 77.4542 82.8405 77.6365 82.6576 77.7824C82.4746 77.9282 82.2551 78.0376 81.9624 78.147C81.6697 78.2199 81.3038 78.2929 80.9013 78.2929C80.4988 78.2929 80.1329 78.2564 79.8401 78.1835C79.5474 78.1105 79.3279 78.0011 79.1449 77.8553C78.962 77.7094 78.8156 77.5271 78.7424 77.3448C78.6692 77.126 78.6327 76.9072 78.6327 76.6884C78.6327 76.6154 78.6327 76.579 78.6692 76.5425C78.7058 76.506 78.7424 76.4696 78.779 76.4696C78.8156 76.4331 78.9254 76.4331 78.9986 76.4331C79.1083 76.4331 79.2181 76.4331 79.3645 76.4331C79.5108 76.4331 79.6206 76.4331 79.6938 76.4331C79.767 76.4331 79.8401 76.4696 79.9133 76.4696C79.9499 76.506 79.9865 76.506 80.0231 76.579C80.0597 76.6154 80.0597 76.6519 80.0597 76.7248C80.0597 76.8342 80.0963 76.9072 80.1329 76.9801C80.1695 77.053 80.2426 77.126 80.3158 77.1989C80.389 77.2718 80.4988 77.3083 80.6085 77.3448C80.7183 77.3812 80.8647 77.4177 80.9744 77.4177C81.1208 77.4177 81.2306 77.3812 81.3403 77.3448C81.4501 77.3083 81.5599 77.2718 81.6331 77.1989C81.7063 77.126 81.7794 77.053 81.816 76.9801C81.8526 76.9072 81.8892 76.7978 81.8892 76.6884C81.8892 76.6519 81.8892 76.6154 81.9258 76.579C81.9258 76.5425 81.9624 76.506 82.0356 76.506C82.0722 76.4696 82.1453 76.4696 82.2185 76.4696C82.2917 76.4696 82.4015 76.4696 82.5478 76.4696C82.6942 76.4696 82.8406 76.4696 82.9137 76.4696C83.0235 76.4696 83.0967 76.506 83.1333 76.506C83.1699 76.506 83.243 76.5425 83.243 76.579C83.1699 76.5425 83.1699 76.6154 83.1699 76.6519Z" fill="#005390"/>
    <path d="M94.9886 86.0966C94.9886 86.1331 94.9886 86.1695 94.952 86.206C94.9154 86.2425 94.8788 86.2789 94.8056 86.2789C94.7324 86.3154 94.6593 86.3154 94.5495 86.3154C94.4397 86.3154 94.2933 86.3154 94.147 86.3154C94.0006 86.3154 93.8543 86.3154 93.7445 86.3154C93.6347 86.3154 93.5615 86.2789 93.4884 86.2789C93.4152 86.2425 93.3786 86.2425 93.342 86.206C93.3054 86.1695 93.3054 86.1331 93.3054 86.0966V83.0334H90.2318V86.0966C90.2318 86.1331 90.2318 86.1695 90.1952 86.206C90.1586 86.2425 90.122 86.2789 90.0489 86.2789C89.9757 86.2789 89.9025 86.3154 89.7927 86.3154C89.683 86.3154 89.5366 86.3154 89.3902 86.3154C89.2439 86.3154 89.0975 86.3154 88.9877 86.3154C88.878 86.3154 88.8048 86.2789 88.7316 86.2789C88.6584 86.2789 88.6218 86.2425 88.5853 86.206C88.5487 86.1695 88.5487 86.1331 88.5487 86.0966V78.9128C88.5487 78.8763 88.5487 78.8398 88.5853 78.8034C88.6218 78.7669 88.6584 78.7304 88.7316 78.7304C88.8048 78.7304 88.878 78.694 88.9877 78.694C89.0975 78.694 89.2439 78.694 89.3902 78.694C89.5366 78.694 89.683 78.694 89.7927 78.694C89.9025 78.694 89.9757 78.7304 90.0489 78.7304C90.122 78.7304 90.1586 78.7669 90.1952 78.8034C90.2318 78.8398 90.2318 78.8763 90.2318 78.9128V81.7207H93.3054V78.9128C93.3054 78.8763 93.3054 78.8398 93.342 78.8034C93.3786 78.7669 93.4152 78.7304 93.4884 78.7304C93.5615 78.694 93.6347 78.694 93.7445 78.694C93.8543 78.694 94.0006 78.694 94.147 78.694C94.2933 78.694 94.4397 78.694 94.5495 78.694C94.6593 78.694 94.7324 78.7304 94.8056 78.7304C94.8788 78.7669 94.9154 78.7669 94.952 78.8034C94.9886 78.8398 94.9886 78.8763 94.9886 78.9128V86.0966Z" fill="#005390"/>
    <path d="M103.331 85.7319C103.368 85.8778 103.404 85.9872 103.441 86.0601C103.441 86.1331 103.441 86.206 103.404 86.2425C103.368 86.2789 103.258 86.3154 103.148 86.3154C103.038 86.3154 102.855 86.3154 102.673 86.3154C102.453 86.3154 102.307 86.3154 102.16 86.3154C102.051 86.3154 101.941 86.3154 101.868 86.2789C101.794 86.2789 101.758 86.2425 101.721 86.206C101.685 86.1695 101.685 86.1331 101.648 86.0966L101.099 84.565H98.0256L97.5133 86.0601C97.5133 86.1331 97.4767 86.1695 97.4401 86.206C97.4035 86.2425 97.3669 86.2789 97.2938 86.2789C97.2206 86.3154 97.1474 86.3154 97.0376 86.3154C96.9279 86.3154 96.7815 86.3154 96.5985 86.3154C96.4156 86.3154 96.2692 86.3154 96.1594 86.3154C96.0497 86.3154 95.9765 86.2789 95.9399 86.2425C95.9033 86.206 95.8667 86.1331 95.9033 86.0601C95.9033 85.9872 95.9399 85.8778 96.0131 85.7319L98.5378 78.9857C98.5744 78.9128 98.5744 78.8763 98.611 78.8398C98.6476 78.8034 98.6842 78.7669 98.7574 78.7304C98.8305 78.694 98.9403 78.694 99.0501 78.694C99.1965 78.694 99.3428 78.694 99.5624 78.694C99.8185 78.694 100.001 78.694 100.148 78.694C100.294 78.694 100.404 78.7304 100.477 78.7304C100.55 78.7669 100.623 78.7669 100.66 78.8398C100.697 78.8763 100.733 78.9492 100.77 79.0222L103.331 85.7319ZM99.5624 80.1526L98.3915 83.3981H100.697L99.5624 80.1526Z" fill="#005390"/>
    <path d="M111.674 88.1022C111.674 88.1387 111.674 88.1752 111.637 88.2116C111.601 88.2481 111.564 88.2481 111.527 88.2846C111.491 88.2846 111.418 88.321 111.308 88.321C111.198 88.321 111.088 88.321 110.942 88.321C110.796 88.321 110.686 88.321 110.576 88.321C110.466 88.321 110.393 88.2846 110.357 88.2846C110.283 88.2846 110.247 88.2481 110.247 88.2116C110.21 88.1752 110.21 88.1387 110.21 88.1022V86.3154H104.795C104.648 86.3154 104.539 86.2789 104.429 86.206C104.356 86.1331 104.283 85.9872 104.283 85.8413V78.9128C104.283 78.8763 104.283 78.8398 104.319 78.8034C104.356 78.7669 104.392 78.7669 104.465 78.7304C104.539 78.694 104.612 78.694 104.722 78.694C104.831 78.694 104.978 78.694 105.124 78.694C105.27 78.694 105.417 78.694 105.527 78.694C105.636 78.694 105.71 78.7304 105.783 78.7304C105.856 78.7669 105.892 78.7669 105.929 78.8034C105.966 78.8398 105.966 78.8763 105.966 78.9128V85.0391H108.966V78.9128C108.966 78.8763 108.966 78.8398 109.003 78.8034C109.039 78.7669 109.076 78.7669 109.149 78.7304C109.222 78.694 109.295 78.694 109.405 78.694C109.515 78.694 109.661 78.694 109.808 78.694C109.954 78.694 110.1 78.694 110.21 78.694C110.32 78.694 110.393 78.7304 110.466 78.7304C110.539 78.7669 110.576 78.7669 110.613 78.8034C110.649 78.8398 110.649 78.8763 110.649 78.9128V85.0391H111.381C111.491 85.0391 111.564 85.0755 111.601 85.112C111.637 85.1485 111.674 85.2579 111.674 85.3673V88.1022Z" fill="#005390"/>
    <path d="M114.381 86.0966C114.381 86.1331 114.381 86.1695 114.345 86.206C114.308 86.2425 114.272 86.2789 114.198 86.2789C114.125 86.3154 114.052 86.3154 113.942 86.3154C113.833 86.3154 113.686 86.3154 113.54 86.3154C113.393 86.3154 113.247 86.3154 113.137 86.3154C113.028 86.3154 112.954 86.2789 112.881 86.2789C112.808 86.2425 112.771 86.2425 112.735 86.206C112.698 86.1695 112.698 86.1331 112.698 86.0966V78.9128C112.698 78.8763 112.698 78.8398 112.735 78.8034C112.771 78.7669 112.808 78.7304 112.881 78.7304C112.954 78.694 113.028 78.694 113.137 78.694C113.247 78.694 113.393 78.694 113.54 78.694C113.686 78.694 113.833 78.694 113.942 78.694C114.052 78.694 114.125 78.7304 114.198 78.7304C114.272 78.7669 114.308 78.7669 114.345 78.8034C114.381 78.8398 114.381 78.8763 114.381 78.9128V86.0966Z" fill="#005390"/>
    <path d="M123.383 82.4135C123.383 83.0335 123.309 83.6169 123.127 84.091C122.944 84.6015 122.724 85.0026 122.358 85.3673C122.029 85.732 121.626 85.9872 121.114 86.1696C120.638 86.3519 120.053 86.4613 119.394 86.4613C118.772 86.4613 118.187 86.3884 117.748 86.2425C117.272 86.0966 116.87 85.8414 116.577 85.5496C116.248 85.2214 116.028 84.8203 115.882 84.3462C115.735 83.8722 115.662 83.2887 115.662 82.5959C115.662 81.9759 115.735 81.429 115.918 80.9184C116.101 80.4444 116.321 80.0068 116.687 79.6786C117.016 79.3504 117.418 79.0587 117.931 78.8763C118.406 78.694 118.992 78.5846 119.65 78.5846C120.272 78.5846 120.821 78.6575 121.297 78.8034C121.773 78.9493 122.175 79.2045 122.468 79.4962C122.797 79.8244 123.017 80.2256 123.2 80.6996C123.309 81.1737 123.383 81.7572 123.383 82.4135ZM121.626 82.4865C121.626 82.0853 121.59 81.7207 121.517 81.3925C121.443 81.0643 121.334 80.7726 121.187 80.5538C121.041 80.335 120.821 80.1526 120.529 80.0068C120.272 79.8974 119.907 79.8244 119.504 79.8244C119.102 79.8244 118.772 79.8974 118.48 80.0432C118.223 80.1891 117.967 80.3714 117.821 80.6267C117.638 80.882 117.528 81.1372 117.455 81.4654C117.382 81.7936 117.345 82.1218 117.345 82.4865C117.345 82.8876 117.382 83.2887 117.455 83.6169C117.528 83.9451 117.638 84.2369 117.784 84.4556C117.931 84.6744 118.15 84.8568 118.443 85.0026C118.699 85.112 119.065 85.185 119.467 85.185C119.87 85.185 120.199 85.112 120.492 84.9662C120.785 84.8203 121.004 84.638 121.151 84.3827C121.334 84.1274 121.443 83.8722 121.517 83.544C121.59 83.2158 121.626 82.8511 121.626 82.4865Z" fill="#005390"/>
    <path d="M131.03 86.0966C131.03 86.1331 131.03 86.1695 130.993 86.206C130.957 86.2425 130.92 86.2789 130.847 86.2789C130.774 86.2789 130.701 86.3154 130.591 86.3154C130.481 86.3154 130.335 86.3154 130.188 86.3154C130.042 86.3154 129.896 86.3154 129.786 86.3154C129.676 86.3154 129.603 86.2789 129.53 86.2789C129.457 86.2789 129.42 86.2425 129.383 86.206C129.347 86.1695 129.347 86.1331 129.347 86.0966V83.0334H126.273V86.0966C126.273 86.1331 126.273 86.1695 126.237 86.206C126.2 86.2425 126.164 86.2789 126.09 86.2789C126.017 86.3154 125.944 86.3154 125.834 86.3154C125.724 86.3154 125.578 86.3154 125.432 86.3154C125.285 86.3154 125.139 86.3154 125.029 86.3154C124.919 86.3154 124.846 86.2789 124.773 86.2789C124.7 86.2425 124.663 86.2425 124.627 86.206C124.59 86.1695 124.59 86.1331 124.59 86.0966V78.9128C124.59 78.8763 124.59 78.8398 124.627 78.8034C124.663 78.7669 124.7 78.7304 124.773 78.7304C124.846 78.694 124.919 78.694 125.029 78.694C125.139 78.694 125.285 78.694 125.432 78.694C125.578 78.694 125.724 78.694 125.834 78.694C125.944 78.694 126.017 78.7304 126.09 78.7304C126.164 78.7669 126.2 78.7669 126.237 78.8034C126.273 78.8398 126.273 78.8763 126.273 78.9128V81.7207H129.347V78.9128C129.347 78.8763 129.347 78.8398 129.383 78.8034C129.42 78.7669 129.457 78.7304 129.53 78.7304C129.603 78.7304 129.676 78.694 129.786 78.694C129.896 78.694 130.042 78.694 130.188 78.694C130.335 78.694 130.481 78.694 130.591 78.694C130.701 78.694 130.774 78.7304 130.847 78.7304C130.92 78.7304 130.957 78.7669 130.993 78.8034C131.03 78.8398 131.03 78.8763 131.03 78.9128V86.0966Z" fill="#005390"/>
    <path d="M139.373 85.7319C139.409 85.8778 139.446 85.9872 139.482 86.0601C139.482 86.1331 139.482 86.206 139.446 86.2425C139.409 86.2789 139.299 86.3154 139.19 86.3154C139.08 86.3154 138.897 86.3154 138.714 86.3154C138.494 86.3154 138.348 86.3154 138.202 86.3154C138.092 86.3154 137.982 86.3154 137.909 86.2789C137.836 86.2789 137.799 86.2425 137.763 86.206C137.726 86.1695 137.726 86.1331 137.689 86.0966L137.141 84.565H134.067L133.555 86.0601C133.555 86.1331 133.518 86.1695 133.482 86.206C133.445 86.2425 133.408 86.2789 133.335 86.2789C133.262 86.3154 133.189 86.3154 133.079 86.3154C132.969 86.3154 132.823 86.3154 132.64 86.3154C132.457 86.3154 132.311 86.3154 132.201 86.3154C132.091 86.3154 132.018 86.2789 131.981 86.2425C131.945 86.206 131.908 86.1331 131.945 86.0601C131.945 85.9872 131.981 85.8778 132.055 85.7319L134.579 78.9857C134.616 78.9128 134.616 78.8763 134.652 78.8398C134.689 78.8034 134.726 78.7669 134.799 78.7304C134.872 78.694 134.982 78.694 135.092 78.694C135.238 78.694 135.384 78.694 135.604 78.694C135.86 78.694 136.043 78.694 136.189 78.694C136.336 78.694 136.445 78.7304 136.519 78.7304C136.592 78.7669 136.665 78.7669 136.702 78.8398C136.738 78.8763 136.775 78.9492 136.811 79.0222L139.373 85.7319ZM135.604 80.1526L134.433 83.3981H136.738L135.604 80.1526Z" fill="#005390"/>
    <path d="M146.727 86.0966C146.727 86.1331 146.727 86.1695 146.691 86.206C146.654 86.2425 146.618 86.2425 146.544 86.2789C146.471 86.3154 146.398 86.3154 146.288 86.3154C146.178 86.3154 146.032 86.3154 145.886 86.3154C145.739 86.3154 145.593 86.3154 145.483 86.3154C145.373 86.3154 145.3 86.2789 145.227 86.2789C145.154 86.2425 145.117 86.2425 145.081 86.206C145.044 86.1695 145.044 86.1331 145.044 86.0966V79.9703H143.288C143.178 80.8819 143.068 81.6477 142.922 82.3041C142.776 82.9605 142.666 83.544 142.519 84.018C142.373 84.4921 142.227 84.8932 142.044 85.1849C141.861 85.4767 141.678 85.7319 141.458 85.9143C141.239 86.0966 141.019 86.206 140.727 86.2789C140.47 86.3519 140.141 86.3883 139.812 86.3883C139.739 86.3883 139.702 86.3883 139.665 86.3519C139.629 86.3519 139.592 86.3154 139.556 86.2789C139.519 86.2425 139.519 86.1695 139.482 86.0966C139.482 86.0237 139.446 85.9143 139.446 85.8049C139.446 85.6225 139.446 85.5131 139.446 85.4037C139.446 85.2943 139.482 85.2214 139.482 85.1485C139.519 85.0755 139.519 85.0391 139.556 85.0391C139.592 85.0026 139.629 85.0026 139.665 85.0026C139.812 85.0026 139.922 84.9661 140.031 84.9297C140.141 84.8932 140.251 84.7838 140.361 84.638C140.47 84.4921 140.58 84.2733 140.69 84.018C140.8 83.7628 140.909 83.3981 140.983 82.997C141.092 82.5594 141.166 82.0489 141.275 81.4289C141.385 80.809 141.458 80.0797 141.568 79.241C141.605 79.0586 141.641 78.9128 141.714 78.8034C141.788 78.7304 141.897 78.694 142.044 78.694H146.069C146.215 78.694 146.325 78.7304 146.435 78.8034C146.508 78.8763 146.544 79.0222 146.544 79.168V86.0966H146.727Z" fill="#005390"/>
    <path d="M154.411 83.7992C154.411 84.1639 154.338 84.4921 154.228 84.7838C154.119 85.0755 153.936 85.3308 153.679 85.5861C153.423 85.8049 153.094 85.9872 152.655 86.1331C152.252 86.2789 151.667 86.3154 150.935 86.3154H148.886C148.813 86.3154 148.74 86.3154 148.703 86.2789C148.63 86.2789 148.593 86.2425 148.557 86.206C148.52 86.1695 148.484 86.0966 148.447 86.0601C148.41 85.9872 148.41 85.9143 148.41 85.8413V78.9128C148.41 78.8763 148.41 78.8398 148.447 78.8034C148.484 78.7669 148.52 78.7669 148.593 78.7304C148.667 78.694 148.74 78.694 148.85 78.694C148.959 78.694 149.106 78.694 149.252 78.694C149.398 78.694 149.545 78.694 149.655 78.694C149.764 78.694 149.838 78.7304 149.911 78.7304C149.984 78.7669 150.02 78.7669 150.057 78.8034C150.094 78.8398 150.094 78.8763 150.094 78.9128V81.5019H151.228C151.85 81.5019 152.326 81.5383 152.692 81.6477C153.057 81.7571 153.35 81.903 153.606 82.0853C153.862 82.2676 154.045 82.5229 154.192 82.8146C154.338 83.1064 154.411 83.4346 154.411 83.7992ZM152.692 83.9086C152.692 83.7263 152.655 83.544 152.618 83.3981C152.545 83.2522 152.472 83.1064 152.362 83.0334C152.252 82.924 152.07 82.8511 151.887 82.7782C151.704 82.7052 151.411 82.7052 151.045 82.7052H150.094V85.112H151.082C151.484 85.112 151.777 85.0755 151.96 85.0026C152.143 84.9297 152.326 84.8203 152.435 84.7109C152.545 84.6015 152.618 84.4556 152.655 84.3097C152.692 84.1639 152.692 84.0545 152.692 83.9086Z" fill="#005390"/>
    <path d="M161.803 86.0966C161.803 86.1331 161.803 86.1695 161.766 86.206C161.729 86.2425 161.693 86.2789 161.62 86.2789C161.546 86.2789 161.473 86.3154 161.363 86.3154C161.254 86.3154 161.107 86.3154 160.961 86.3154C160.815 86.3154 160.668 86.3154 160.558 86.3154C160.449 86.3154 160.376 86.2789 160.302 86.2789C160.229 86.2789 160.193 86.2425 160.156 86.206C160.119 86.1695 160.119 86.1331 160.119 86.0966V83.0334H157.046V86.0966C157.046 86.1331 157.046 86.1695 157.009 86.206C156.973 86.2425 156.936 86.2789 156.863 86.2789C156.79 86.3154 156.716 86.3154 156.607 86.3154C156.497 86.3154 156.351 86.3154 156.204 86.3154C156.058 86.3154 155.912 86.3154 155.802 86.3154C155.692 86.3154 155.619 86.2789 155.546 86.2789C155.472 86.2425 155.436 86.2425 155.399 86.206C155.363 86.1695 155.363 86.1331 155.363 86.0966V78.9128C155.363 78.8763 155.363 78.8398 155.399 78.8034C155.436 78.7669 155.472 78.7304 155.546 78.7304C155.619 78.694 155.692 78.694 155.802 78.694C155.912 78.694 156.058 78.694 156.204 78.694C156.351 78.694 156.497 78.694 156.607 78.694C156.716 78.694 156.79 78.7304 156.863 78.7304C156.936 78.7669 156.973 78.7669 157.009 78.8034C157.046 78.8398 157.046 78.8763 157.046 78.9128V81.7207H160.119V78.9128C160.119 78.8763 160.119 78.8398 160.156 78.8034C160.193 78.7669 160.229 78.7304 160.302 78.7304C160.376 78.7304 160.449 78.694 160.558 78.694C160.668 78.694 160.815 78.694 160.961 78.694C161.107 78.694 161.254 78.694 161.363 78.694C161.473 78.694 161.546 78.7304 161.62 78.7304C161.693 78.7304 161.729 78.7669 161.766 78.8034C161.803 78.8398 161.803 78.8763 161.803 78.9128V86.0966Z" fill="#005390"/>
    <path d="M170.109 86.0966C170.109 86.1331 170.109 86.1695 170.072 86.206C170.035 86.2425 169.999 86.2425 169.926 86.2789C169.852 86.3154 169.779 86.3154 169.669 86.3154C169.56 86.3154 169.413 86.3154 169.267 86.3154C169.121 86.3154 168.974 86.3154 168.864 86.3154C168.755 86.3154 168.682 86.2789 168.608 86.2789C168.535 86.2789 168.499 86.2425 168.462 86.206C168.425 86.1695 168.425 86.1331 168.425 86.0966V82.0853C168.425 81.9395 168.425 81.7936 168.425 81.6477C168.425 81.5019 168.425 81.356 168.462 81.2466C168.425 81.3195 168.389 81.356 168.352 81.4289C168.316 81.5019 168.242 81.5748 168.206 81.6477C168.169 81.7207 168.096 81.7936 168.023 81.903C167.95 81.9759 167.913 82.0853 167.84 82.1582L164.986 86.0966C164.949 86.1331 164.913 86.1695 164.876 86.206C164.84 86.2425 164.803 86.2789 164.73 86.2789C164.657 86.2789 164.62 86.3154 164.51 86.3154C164.437 86.3154 164.327 86.3154 164.181 86.3154C164.035 86.3154 163.888 86.3154 163.778 86.3154C163.669 86.3154 163.595 86.2789 163.559 86.2789C163.522 86.2789 163.449 86.2425 163.449 86.206C163.449 86.1695 163.413 86.1331 163.413 86.0966V78.9128C163.413 78.8763 163.413 78.8398 163.449 78.8034C163.486 78.7669 163.522 78.7669 163.595 78.7304C163.669 78.694 163.742 78.694 163.852 78.694C163.961 78.694 164.108 78.694 164.254 78.694C164.4 78.694 164.547 78.694 164.657 78.694C164.766 78.694 164.84 78.7304 164.913 78.7304C164.986 78.7669 165.022 78.7669 165.059 78.8034C165.096 78.8398 165.096 78.8763 165.096 78.9128V82.9605C165.096 83.0699 165.096 83.2158 165.096 83.3616C165.096 83.5075 165.096 83.6534 165.059 83.7628C165.132 83.6534 165.205 83.5075 165.315 83.3252C165.425 83.1428 165.535 82.997 165.645 82.8511L168.499 78.9128C168.535 78.8763 168.572 78.8398 168.608 78.8034C168.645 78.7669 168.682 78.7669 168.755 78.7304C168.828 78.694 168.864 78.694 168.974 78.694C169.084 78.694 169.157 78.694 169.304 78.694C169.45 78.694 169.596 78.694 169.706 78.694C169.816 78.694 169.889 78.7304 169.926 78.7304C169.962 78.7304 170.035 78.7669 170.035 78.8034C170.072 78.8398 170.072 78.8763 170.072 78.9128V86.0966H170.109Z" fill="#005390"/>
    <path d="M178.378 86.0966C178.378 86.1331 178.378 86.1696 178.341 86.206C178.305 86.2425 178.268 86.2425 178.195 86.279C178.122 86.3154 178.049 86.3154 177.939 86.3154C177.829 86.3154 177.683 86.3154 177.536 86.3154C177.39 86.3154 177.244 86.3154 177.134 86.3154C177.024 86.3154 176.951 86.279 176.878 86.279C176.805 86.279 176.768 86.2425 176.731 86.206C176.695 86.1696 176.695 86.1331 176.695 86.0966V82.0854C176.695 81.9395 176.695 81.7936 176.695 81.6478C176.695 81.5019 176.695 81.356 176.731 81.2466C176.695 81.3196 176.658 81.356 176.622 81.429C176.585 81.5019 176.512 81.5748 176.475 81.6478C176.439 81.7207 176.365 81.7936 176.292 81.903C176.219 81.976 176.183 82.0854 176.109 82.1583L173.255 86.0966C173.219 86.1331 173.182 86.1696 173.146 86.206C173.109 86.2425 173.072 86.279 172.999 86.279C172.926 86.279 172.889 86.3154 172.78 86.3154C172.706 86.3154 172.597 86.3154 172.45 86.3154C172.304 86.3154 172.158 86.3154 172.048 86.3154C171.938 86.3154 171.865 86.279 171.828 86.279C171.792 86.279 171.718 86.2425 171.718 86.206C171.718 86.1696 171.682 86.1331 171.682 86.0966V78.9128C171.682 78.8763 171.682 78.8399 171.718 78.8034C171.755 78.7669 171.792 78.7669 171.865 78.7305C171.938 78.694 172.011 78.694 172.121 78.694C172.231 78.694 172.377 78.694 172.523 78.694C172.67 78.694 172.816 78.694 172.926 78.694C173.036 78.694 173.109 78.7305 173.182 78.7305C173.255 78.7669 173.292 78.7669 173.328 78.8034C173.365 78.8399 173.365 78.8763 173.365 78.9128V82.9605C173.365 83.0699 173.365 83.2158 173.365 83.3617C173.365 83.5075 173.365 83.6534 173.328 83.7628C173.402 83.6534 173.475 83.5075 173.585 83.3252C173.694 83.1429 173.804 82.997 173.914 82.8511L176.768 78.9128C176.805 78.8763 176.841 78.8399 176.878 78.8034C176.914 78.7669 176.951 78.7669 177.024 78.7305C177.097 78.694 177.134 78.694 177.244 78.694C177.353 78.694 177.427 78.694 177.573 78.694C177.719 78.694 177.866 78.694 177.975 78.694C178.085 78.694 178.158 78.7305 178.195 78.7305C178.232 78.7305 178.305 78.7669 178.305 78.8034C178.341 78.8399 178.341 78.8763 178.341 78.9128V86.0966H178.378ZM177.427 76.6519C177.427 76.8707 177.39 77.0895 177.317 77.2718C177.244 77.4542 177.097 77.6365 176.914 77.7824C176.731 77.9282 176.512 78.0376 176.219 78.147C175.926 78.2564 175.56 78.2929 175.158 78.2929C174.756 78.2929 174.39 78.2564 174.097 78.1835C173.804 78.1105 173.585 78.0011 173.402 77.8553C173.219 77.7094 173.072 77.5271 172.999 77.3448C172.926 77.126 172.889 76.9072 172.889 76.6884C172.889 76.6154 172.889 76.579 172.926 76.5425C172.963 76.506 172.999 76.4696 173.036 76.4696C173.072 76.4696 173.182 76.4331 173.255 76.4331C173.365 76.4331 173.475 76.4331 173.621 76.4331C173.768 76.4331 173.877 76.4331 173.951 76.4331C174.024 76.4331 174.097 76.4696 174.17 76.4696C174.207 76.506 174.243 76.506 174.28 76.579C174.316 76.6154 174.316 76.6519 174.316 76.7248C174.316 76.8342 174.353 76.9072 174.39 76.9801C174.426 77.053 174.499 77.126 174.573 77.1989C174.646 77.2718 174.755 77.3083 174.865 77.3448C174.975 77.3812 175.121 77.4177 175.231 77.4177C175.378 77.4177 175.487 77.3812 175.597 77.3448C175.707 77.3083 175.817 77.2718 175.89 77.1989C175.963 77.126 176.036 77.053 176.073 76.9801C176.109 76.9072 176.146 76.7978 176.146 76.6884C176.146 76.6519 176.146 76.6154 176.183 76.579C176.183 76.5425 176.219 76.506 176.292 76.506C176.329 76.4696 176.402 76.4696 176.475 76.4696C176.548 76.4696 176.658 76.4696 176.805 76.4696C176.951 76.4696 177.097 76.4696 177.17 76.4696C177.28 76.4696 177.353 76.506 177.39 76.506C177.427 76.506 177.5 76.5425 177.5 76.579C177.427 76.5425 177.427 76.6154 177.427 76.6519Z" fill="#005390"/>
    <path d="M6.54967 89.8891C6.54967 89.9985 6.54967 90.1079 6.54967 90.1808C6.54967 90.2537 6.51308 90.3267 6.51308 90.3631C6.47649 90.3996 6.47649 90.4361 6.4399 90.4725C6.40331 90.509 6.36672 90.509 6.33013 90.509H4.28107V96.6353C4.28107 96.6718 4.28107 96.7082 4.24448 96.7447C4.20789 96.7812 4.1713 96.8176 4.09812 96.8176C4.02494 96.8541 3.95176 96.8541 3.84199 96.8541C3.73222 96.8541 3.58585 96.8541 3.43949 96.8541C3.29313 96.8541 3.14677 96.8541 3.037 96.8541C2.92723 96.8541 2.85405 96.8176 2.78087 96.8176C2.70769 96.7812 2.6711 96.7812 2.63451 96.7447C2.59791 96.7082 2.59791 96.6718 2.59791 96.6353V90.509H0.548855C0.512265 90.509 0.475675 90.509 0.439084 90.4725C0.402494 90.4361 0.402494 90.3996 0.365904 90.3631C0.329313 90.3267 0.329313 90.2537 0.329313 90.1808C0.329313 90.1079 0.329313 89.9985 0.329313 89.8891C0.329313 89.7797 0.329313 89.6703 0.329313 89.5974C0.329313 89.5244 0.365904 89.4515 0.365904 89.415C0.402494 89.3786 0.402494 89.3421 0.439084 89.3056C0.475675 89.2692 0.512265 89.2692 0.548855 89.2692H6.29354C6.33013 89.2692 6.36672 89.2692 6.40331 89.3056C6.4399 89.3421 6.47649 89.3786 6.47649 89.415C6.51308 89.4515 6.51308 89.5244 6.51308 89.5974C6.54967 89.7068 6.54967 89.7797 6.54967 89.8891Z" fill="#005390"/>
    <path d="M12.6969 96.2707C12.6969 96.3801 12.6969 96.4895 12.6969 96.5624C12.6969 96.6354 12.6603 96.7083 12.6603 96.7448C12.6237 96.7812 12.6237 96.8177 12.5871 96.8542C12.5505 96.8906 12.5139 96.8906 12.4773 96.8906H8.3426C8.19623 96.8906 8.08646 96.8542 7.97669 96.7812C7.86692 96.7083 7.83033 96.5989 7.83033 96.4166V89.7797C7.83033 89.5974 7.86692 89.488 7.97669 89.4151C8.08646 89.3421 8.19623 89.3057 8.3426 89.3057H12.4041C12.4407 89.3057 12.4773 89.3057 12.5139 89.3421C12.5505 89.3786 12.5505 89.3786 12.5871 89.4515C12.6237 89.488 12.6237 89.5609 12.6237 89.6339C12.6237 89.7068 12.6237 89.8162 12.6237 89.9256C12.6237 90.035 12.6237 90.1444 12.6237 90.2173C12.6237 90.2903 12.5871 90.3632 12.5871 90.3996C12.5871 90.4361 12.5505 90.4726 12.5139 90.509C12.4773 90.5455 12.4407 90.5455 12.4041 90.5455H9.4769V92.4053H11.9285C11.965 92.4053 12.0016 92.4053 12.0382 92.4418C12.0748 92.4782 12.1114 92.5147 12.1114 92.5512C12.148 92.5876 12.148 92.6606 12.148 92.7335C12.148 92.8064 12.148 92.9158 12.148 93.0252C12.148 93.1346 12.148 93.244 12.148 93.3169C12.148 93.3899 12.1114 93.4628 12.1114 93.4993C12.0748 93.5357 12.0748 93.5722 12.0382 93.6087C12.0016 93.6451 11.965 93.6451 11.9285 93.6451H9.51349V95.7966H12.4407C12.4773 95.7966 12.5139 95.7966 12.5505 95.8331C12.5871 95.8696 12.6237 95.906 12.6237 95.9425C12.6603 95.979 12.6603 96.0519 12.6603 96.1248C12.6968 96.0519 12.6969 96.1613 12.6969 96.2707Z" fill="#005390"/>
    <path d="M20.3076 96.3071C20.3808 96.453 20.4174 96.5624 20.454 96.6353C20.4906 96.7083 20.454 96.7812 20.4174 96.8177C20.3808 96.8541 20.2711 96.8906 20.1247 96.8906C19.9783 96.8906 19.7954 96.8906 19.5758 96.8906C19.3929 96.8906 19.2099 96.8906 19.1002 96.8906C18.9904 96.8906 18.8806 96.8541 18.844 96.8541C18.7708 96.8541 18.7343 96.8177 18.6977 96.7812C18.6611 96.7447 18.6611 96.7083 18.6245 96.6718L17.0877 93.9368L15.5509 96.6718C15.5143 96.7083 15.5143 96.7447 15.4777 96.7812C15.4411 96.8177 15.4045 96.8541 15.3314 96.8541C15.2582 96.8541 15.185 96.8906 15.0752 96.8906C14.9655 96.8906 14.8191 96.8906 14.5995 96.8906C14.38 96.8906 14.1971 96.8906 14.0873 96.8906C13.9775 96.8906 13.9043 96.8541 13.8312 96.8177C13.7946 96.7812 13.7946 96.7083 13.7946 96.6353C13.8312 96.5624 13.8677 96.453 13.9409 96.3071L15.9168 92.9887L14.0873 89.8526C14.0141 89.7068 13.9775 89.5974 13.9409 89.5244C13.9043 89.4515 13.9409 89.3786 13.9775 89.3421C14.0141 89.3056 14.1239 89.2692 14.2336 89.2692C14.38 89.2692 14.563 89.2692 14.7825 89.2692C14.9655 89.2692 15.1484 89.2692 15.2582 89.2692C15.3679 89.2692 15.4777 89.3056 15.5509 89.3056C15.6241 89.3056 15.6607 89.3421 15.6973 89.3786C15.7338 89.415 15.7338 89.4515 15.7704 89.488L17.1975 92.0041L18.5879 89.488C18.6245 89.4515 18.6245 89.415 18.6611 89.3786C18.6977 89.3421 18.7343 89.3056 18.8074 89.3056C18.8806 89.3056 18.9538 89.2692 19.0636 89.2692C19.1733 89.2692 19.3197 89.2692 19.5027 89.2692C19.7222 89.2692 19.8686 89.2692 20.0149 89.2692C20.1247 89.2692 20.2345 89.3056 20.2711 89.3421C20.3076 89.3786 20.3442 89.4515 20.3076 89.5244C20.2711 89.5974 20.2345 89.7068 20.1613 89.8526L18.3318 92.9522L20.3076 96.3071Z" fill="#005390"/>
    <path d="M28.3209 96.6718C28.3209 96.7083 28.3209 96.7447 28.2843 96.7812C28.2478 96.8177 28.2112 96.8541 28.138 96.8541C28.0648 96.8906 27.9916 96.8906 27.8818 96.8906C27.7721 96.8906 27.6623 96.8906 27.4794 96.8906C27.333 96.8906 27.1866 96.8906 27.0769 96.8906C26.9671 96.8906 26.8939 96.8541 26.8207 96.8541C26.7475 96.8177 26.711 96.8177 26.6744 96.7812C26.6378 96.7447 26.6378 96.7083 26.6378 96.6718V93.6086H23.5642V96.6718C23.5642 96.7083 23.5642 96.7447 23.5276 96.7812C23.491 96.8177 23.4544 96.8541 23.3812 96.8541C23.3081 96.8541 23.2349 96.8906 23.1251 96.8906C23.0153 96.8906 22.869 96.8906 22.7226 96.8906C22.5762 96.8906 22.4299 96.8906 22.3201 96.8906C22.2103 96.8906 22.1372 96.8541 22.064 96.8541C21.9908 96.8177 21.9542 96.8177 21.9176 96.7812C21.881 96.7447 21.881 96.7083 21.881 96.6718V89.488C21.881 89.4515 21.881 89.415 21.9176 89.3786C21.9542 89.3421 21.9908 89.3056 22.064 89.3056C22.1372 89.2692 22.2103 89.2692 22.3201 89.2692C22.4299 89.2692 22.5762 89.2692 22.7226 89.2692C22.869 89.2692 23.0153 89.2692 23.1251 89.2692C23.2349 89.2692 23.3081 89.3056 23.3812 89.3056C23.4544 89.3056 23.491 89.3421 23.5276 89.3786C23.5642 89.415 23.5642 89.4515 23.5642 89.488V92.2959H26.6378V89.488C26.6378 89.4515 26.6378 89.415 26.6744 89.3786C26.711 89.3421 26.7475 89.3056 26.8207 89.3056C26.8939 89.2692 26.9671 89.2692 27.0769 89.2692C27.1866 89.2692 27.333 89.2692 27.4794 89.2692C27.6257 89.2692 27.7721 89.2692 27.8818 89.2692C27.9916 89.2692 28.0648 89.3056 28.138 89.3056C28.2112 89.3421 28.2478 89.3421 28.2843 89.3786C28.3209 89.415 28.3209 89.4515 28.3209 89.488V96.6718Z" fill="#005390"/>
    <path d="M37.7613 92.9887C37.7613 93.6087 37.6881 94.1921 37.5051 94.6662C37.3222 95.1767 37.1026 95.5778 36.7367 95.9425C36.4074 96.3072 36.0049 96.5624 35.4927 96.7448C35.017 96.9271 34.4315 97.0365 33.7729 97.0365C33.1509 97.0365 32.5654 96.9636 32.1263 96.8177C31.6507 96.6718 31.2482 96.4166 30.9554 96.1248C30.6261 95.7966 30.4066 95.3955 30.2602 94.9214C30.1139 94.4474 30.0407 93.8639 30.0407 93.1711C30.0407 92.5511 30.1139 92.0042 30.2968 91.4936C30.4798 91.0196 30.6993 90.582 31.0652 90.2538C31.3945 89.9256 31.797 89.6339 32.3093 89.4515C32.8216 89.2692 33.3704 89.1598 34.029 89.1598C34.6511 89.1598 35.1999 89.2327 35.6756 89.3786C36.1513 89.5245 36.5538 89.7797 36.8465 90.0714C37.1758 90.3996 37.3953 90.8008 37.5783 91.2748C37.6881 91.7489 37.7613 92.3323 37.7613 92.9887ZM36.0049 93.0617C36.0049 92.6605 35.9683 92.2959 35.8951 91.9677C35.822 91.6395 35.7122 91.3478 35.5658 91.129C35.4195 90.9102 35.1999 90.7278 34.9072 90.582C34.6511 90.4726 34.2852 90.3996 33.8827 90.3996C33.4802 90.3996 33.1509 90.4726 32.8581 90.6184C32.602 90.7643 32.3459 90.9466 32.1995 91.2019C32.0166 91.4572 31.9068 91.7124 31.8336 92.0406C31.7604 92.3688 31.7238 92.697 31.7238 93.0617C31.7238 93.4628 31.7604 93.8639 31.8336 94.1921C31.9068 94.5203 32.0166 94.8121 32.1629 95.0309C32.3093 95.2496 32.5288 95.432 32.8216 95.5778C33.0777 95.6872 33.4436 95.7602 33.8461 95.7602C34.2486 95.7602 34.5779 95.6872 34.8706 95.5414C35.1633 95.3955 35.3829 95.2132 35.5292 94.9579C35.7122 94.7027 35.822 94.4474 35.8951 94.1192C35.9683 93.791 36.0049 93.4263 36.0049 93.0617Z" fill="#005390"/>
    <path d="M45.4818 96.6718C45.4818 96.7083 45.4818 96.7447 45.4452 96.7812C45.4086 96.8177 45.372 96.8177 45.2989 96.8541C45.2257 96.8906 45.1525 96.8906 45.0427 96.8906C44.9329 96.8906 44.7866 96.8906 44.6402 96.8906C44.4939 96.8906 44.3475 96.8906 44.2377 96.8906C44.128 96.8906 44.0548 96.8541 43.9816 96.8541C43.9084 96.8177 43.8718 96.8177 43.8352 96.7812C43.7986 96.7447 43.7986 96.7083 43.7986 96.6718V90.5455H42.0789C41.9691 91.4571 41.8228 92.2229 41.713 92.8793C41.6032 93.5357 41.4569 94.1192 41.3105 94.5932C41.1641 95.0673 41.0178 95.4684 40.8348 95.7601C40.6519 96.0519 40.4689 96.3071 40.2494 96.4895C40.0298 96.6718 39.8103 96.7812 39.5176 96.8541C39.2614 96.9271 38.9321 96.9635 38.6028 96.9635C38.5296 96.9635 38.493 96.9635 38.4565 96.9271C38.4199 96.9271 38.3833 96.8906 38.3467 96.8541C38.3101 96.8177 38.3101 96.7447 38.2735 96.6718C38.2735 96.5989 38.2369 96.4895 38.2369 96.3801C38.2369 96.1977 38.2369 96.0883 38.2369 95.9789C38.2369 95.8695 38.2735 95.7966 38.2735 95.7237C38.3101 95.6507 38.3101 95.6143 38.3467 95.6143C38.3833 95.5778 38.4199 95.5778 38.4565 95.5778C38.6028 95.5778 38.7126 95.5413 38.8224 95.5049C38.9321 95.4684 39.0419 95.359 39.1517 95.2132C39.2614 95.0673 39.3712 94.8485 39.481 94.5932C39.5908 94.338 39.7005 93.9733 39.7737 93.5722C39.8835 93.1346 39.9567 92.6241 40.0664 92.0041C40.1762 91.3842 40.2494 90.6549 40.3592 89.8162C40.3957 89.6338 40.4323 89.488 40.5055 89.3786C40.5787 89.3056 40.6885 89.2692 40.8348 89.2692H44.8598C45.0061 89.2692 45.1159 89.3056 45.2257 89.3786C45.2989 89.4515 45.3354 89.5974 45.3354 89.7432V96.6718H45.4818Z" fill="#005390"/>
    <path d="M54.9587 92.9887C54.9587 93.6087 54.8855 94.1921 54.7026 94.6662C54.5196 95.1767 54.3001 95.5778 53.9342 95.9425C53.6049 96.3072 53.2024 96.5624 52.6901 96.7448C52.2144 96.9271 51.629 97.0365 50.9704 97.0365C50.3483 97.0365 49.7629 96.9636 49.3238 96.8177C48.8481 96.6718 48.4456 96.4166 48.1529 96.1248C47.8236 95.7966 47.604 95.3955 47.4577 94.9214C47.3113 94.4474 47.2381 93.8639 47.2381 93.1711C47.2381 92.5511 47.3113 92.0042 47.4943 91.4936C47.6772 91.0196 47.8968 90.582 48.2627 90.2538C48.592 89.9256 48.9945 89.6339 49.5067 89.4515C50.019 89.2692 50.5679 89.1598 51.2265 89.1598C51.8485 89.1598 52.3974 89.2327 52.8731 89.3786C53.3487 89.5245 53.7512 89.7797 54.044 90.0714C54.3733 90.3996 54.5928 90.8008 54.7758 91.2748C54.8489 91.7489 54.9587 92.3323 54.9587 92.9887ZM53.2024 93.0617C53.2024 92.6605 53.1658 92.2959 53.0926 91.9677C53.0194 91.6395 52.9096 91.3478 52.7633 91.129C52.6169 90.9102 52.3974 90.7278 52.1047 90.582C51.8485 90.4726 51.4826 90.3996 51.0801 90.3996C50.6776 90.3996 50.3483 90.4726 50.0556 90.6184C49.7995 90.7643 49.5433 90.9466 49.397 91.2019C49.214 91.4572 49.1043 91.7124 49.0311 92.0406C48.9579 92.3688 48.9213 92.697 48.9213 93.0617C48.9213 93.4628 48.9579 93.8639 49.0311 94.1921C49.1043 94.5203 49.214 94.8121 49.3604 95.0309C49.5067 95.2496 49.7263 95.432 50.019 95.5778C50.2751 95.6872 50.641 95.7602 51.0435 95.7602C51.446 95.7602 51.7753 95.6872 52.0681 95.5414C52.3608 95.3955 52.5803 95.2132 52.7267 94.9579C52.9097 94.7027 53.0194 94.4474 53.0926 94.1192C53.1658 93.791 53.2024 93.4263 53.2024 93.0617Z" fill="#005390"/>
    <path d="M61.2888 89.9256C61.2888 90.035 61.2888 90.1443 61.2888 90.2173C61.2888 90.2902 61.2523 90.3631 61.2523 90.3996C61.2157 90.4361 61.2157 90.4725 61.1791 90.509C61.1425 90.5455 61.1059 90.5455 61.0693 90.5455H58.3616V96.6718C58.3616 96.7083 58.3616 96.7447 58.325 96.7812C58.2884 96.8177 58.2518 96.8177 58.1787 96.8541C58.1055 96.8906 58.0323 96.8906 57.9225 96.8906C57.8128 96.8906 57.6664 96.8906 57.52 96.8906C57.3737 96.8906 57.2273 96.8906 57.1175 96.8906C57.0078 96.8906 56.9346 96.8541 56.8614 96.8541C56.7882 96.8177 56.7516 96.8177 56.715 96.7812C56.6785 96.7447 56.6785 96.7083 56.6785 96.6718V89.7432C56.6785 89.5609 56.715 89.4515 56.8248 89.3786C56.898 89.3056 57.0444 89.2692 57.1907 89.2692H61.0693C61.1425 89.2692 61.2157 89.3056 61.2523 89.415C61.2888 89.5244 61.2888 89.6703 61.2888 89.9256Z" fill="#005390"/>
    <path d="M64.2527 96.6718C64.2527 96.7083 64.2527 96.7447 64.2161 96.7812C64.1795 96.8177 64.1429 96.8541 64.0697 96.8541C63.9965 96.8541 63.9234 96.8906 63.8136 96.8906C63.7038 96.8906 63.5575 96.8906 63.4111 96.8906C63.2647 96.8906 63.1184 96.8906 63.0086 96.8906C62.8988 96.8906 62.8256 96.8541 62.7525 96.8541C62.6793 96.8177 62.6427 96.8177 62.6061 96.7812C62.5695 96.7447 62.5695 96.7083 62.5695 96.6718V89.488C62.5695 89.4515 62.5695 89.415 62.6061 89.3786C62.6427 89.3421 62.6793 89.3056 62.7525 89.3056C62.8256 89.2692 62.8988 89.2692 63.0086 89.2692C63.1184 89.2692 63.2281 89.2692 63.4111 89.2692C63.5575 89.2692 63.7038 89.2692 63.8136 89.2692C63.9234 89.2692 63.9965 89.3056 64.0697 89.3056C64.1429 89.3056 64.1795 89.3421 64.2161 89.3786C64.2527 89.415 64.2527 89.4515 64.2527 89.488V96.6718Z" fill="#005390"/>
    <path d="M71.9366 96.6719C71.9366 96.7083 71.9366 96.7448 71.9 96.7813C71.8635 96.8177 71.8269 96.8177 71.7537 96.8542C71.6805 96.8907 71.6073 96.8907 71.4975 96.8907C71.3878 96.8907 71.278 96.8907 71.0951 96.8907C70.9487 96.8907 70.8023 96.8907 70.6926 96.8907C70.5828 96.8907 70.5096 96.8542 70.4364 96.8542C70.3632 96.8542 70.3267 96.8177 70.2901 96.7813C70.2535 96.7448 70.2535 96.7083 70.2535 96.6719V94.0828C70.0339 94.1192 69.8144 94.1192 69.5948 94.1192C69.3753 94.1192 69.1558 94.1557 68.9362 94.1557C68.4971 94.1557 68.0581 94.1192 67.6922 94.0463C67.3262 93.9734 66.9969 93.8275 66.7408 93.6452C66.4847 93.4628 66.2651 93.2076 66.1188 92.8794C65.9724 92.5512 65.8992 92.1501 65.8992 91.6395V89.4516C65.8992 89.4151 65.8992 89.3786 65.9358 89.3422C65.9724 89.3057 66.009 89.3057 66.0822 89.2692C66.1554 89.2328 66.2285 89.2328 66.3383 89.2328C66.4481 89.2328 66.5578 89.2328 66.7408 89.2328C66.8872 89.2328 67.0335 89.2328 67.1433 89.2328C67.2531 89.2328 67.3262 89.2692 67.3994 89.2692C67.4726 89.3057 67.5092 89.3057 67.5458 89.3422C67.5824 89.3786 67.5824 89.4151 67.5824 89.4516V91.4572C67.5824 91.676 67.619 91.8948 67.6556 92.0771C67.6921 92.2594 67.8019 92.4053 67.9117 92.5147C68.0215 92.6241 68.2044 92.697 68.3874 92.77C68.5703 92.8429 68.8265 92.8429 69.1192 92.8429C69.3021 92.8429 69.4851 92.8429 69.668 92.8064C69.851 92.8064 70.0339 92.77 70.2169 92.77V89.4151C70.2169 89.3786 70.2169 89.3421 70.2535 89.3057C70.2901 89.2692 70.3267 89.2692 70.3998 89.2328C70.473 89.1963 70.5462 89.1963 70.656 89.1963C70.7657 89.1963 70.9121 89.1963 71.0585 89.1963C71.2048 89.1963 71.3512 89.1963 71.461 89.1963C71.5707 89.1963 71.6439 89.2328 71.7171 89.2328C71.7903 89.2692 71.8269 89.2692 71.8635 89.3057C71.9 89.3421 71.9 89.3786 71.9 89.4151V96.6719H71.9366Z" fill="#005390"/>
    <path d="M80.4256 96.6718C80.4256 96.7083 80.4256 96.7447 80.389 96.7812C80.3524 96.8177 80.3158 96.8541 80.2426 96.8541C80.1695 96.8906 80.0963 96.8906 79.9865 96.8906C79.8767 96.8906 79.767 96.8906 79.584 96.8906C79.4376 96.8906 79.2913 96.8906 79.1815 96.8906C79.0717 96.8906 78.9986 96.8541 78.9254 96.8541C78.8522 96.8177 78.8156 96.8177 78.779 96.7812C78.7424 96.7447 78.7424 96.7083 78.7424 96.6718V93.6086H75.6688V96.6718C75.6688 96.7083 75.6688 96.7447 75.6323 96.7812C75.5957 96.8177 75.5591 96.8541 75.4859 96.8541C75.4127 96.8541 75.3395 96.8906 75.2298 96.8906C75.12 96.8906 74.9736 96.8906 74.8273 96.8906C74.6809 96.8906 74.5345 96.8906 74.4248 96.8906C74.315 96.8906 74.2418 96.8541 74.1686 96.8541C74.0955 96.8177 74.0589 96.8177 74.0223 96.7812C73.9857 96.7447 73.9857 96.7083 73.9857 96.6718V89.488C73.9857 89.4515 73.9857 89.415 74.0223 89.3786C74.0589 89.3421 74.0955 89.3056 74.1686 89.3056C74.2418 89.2692 74.315 89.2692 74.4248 89.2692C74.5345 89.2692 74.6809 89.2692 74.8273 89.2692C74.9736 89.2692 75.12 89.2692 75.2298 89.2692C75.3395 89.2692 75.4127 89.3056 75.4859 89.3056C75.5591 89.3056 75.5957 89.3421 75.6323 89.3786C75.6688 89.415 75.6688 89.4515 75.6688 89.488V92.2959H78.7424V89.488C78.7424 89.4515 78.7424 89.415 78.779 89.3786C78.8156 89.3421 78.8522 89.3056 78.9254 89.3056C78.9986 89.2692 79.0717 89.2692 79.1815 89.2692C79.2913 89.2692 79.4376 89.2692 79.584 89.2692C79.7304 89.2692 79.8767 89.2692 79.9865 89.2692C80.0963 89.2692 80.1695 89.3056 80.2426 89.3056C80.3158 89.3421 80.3524 89.3421 80.389 89.3786C80.4256 89.415 80.4256 89.4515 80.4256 89.488V96.6718Z" fill="#005390"/>
    <path d="M89.1707 96.6718C89.1707 96.7083 89.1707 96.7447 89.1341 96.7812C89.0975 96.8177 89.0609 96.8177 88.9877 96.8541C88.9146 96.8906 88.8414 96.8906 88.7316 96.8906C88.6218 96.8906 88.4755 96.8906 88.3291 96.8906C88.1828 96.8906 88.0364 96.8906 87.9266 96.8906C87.8169 96.8906 87.7437 96.8541 87.6705 96.8541C87.5973 96.8177 87.5607 96.8177 87.5241 96.7812C87.4875 96.7447 87.4875 96.7083 87.4875 96.6718V92.6605C87.4875 92.5147 87.4875 92.3688 87.4875 92.2229C87.4875 92.0771 87.4875 91.9312 87.5241 91.8218C87.4875 91.8947 87.4509 91.9312 87.4144 92.0041C87.3778 92.0771 87.3046 92.15 87.268 92.2229C87.2314 92.2959 87.1582 92.3688 87.085 92.4782C87.0119 92.5511 86.9753 92.6605 86.9021 92.7334L84.048 96.6718C84.0115 96.7083 83.9749 96.7447 83.9383 96.7812C83.9017 96.8177 83.8651 96.8541 83.7919 96.8541C83.7187 96.8541 83.6821 96.8906 83.5724 96.8906C83.4992 96.8906 83.3894 96.8906 83.2431 96.8906C83.0967 96.8906 82.9503 96.8906 82.8406 96.8906C82.7308 96.8906 82.6576 96.8541 82.621 96.8541C82.5844 96.8541 82.5112 96.8177 82.5112 96.7812C82.5112 96.7447 82.4747 96.7083 82.4747 96.6718V89.488C82.4747 89.4515 82.4747 89.415 82.5112 89.3786C82.5478 89.3421 82.5844 89.3421 82.6576 89.3056C82.7308 89.2692 82.804 89.2692 82.9137 89.2692C83.0235 89.2692 83.1333 89.2692 83.3162 89.2692C83.4626 89.2692 83.609 89.2692 83.7187 89.2692C83.8285 89.2692 83.9017 89.3056 83.9749 89.3056C84.048 89.3056 84.0846 89.3421 84.1212 89.3786C84.1578 89.415 84.1578 89.4515 84.1578 89.488V93.5357C84.1578 93.6451 84.1578 93.791 84.1578 93.9368C84.1578 94.0827 84.1578 94.2286 84.1212 94.338C84.1944 94.2286 84.2676 94.0827 84.3774 93.9004C84.4871 93.718 84.5969 93.5722 84.7067 93.4263L87.5607 89.488C87.5973 89.4515 87.6339 89.415 87.6705 89.3786C87.7071 89.3421 87.7437 89.3421 87.8169 89.3056C87.89 89.2692 87.9266 89.2692 88.0364 89.2692C88.1462 89.2692 88.2193 89.2692 88.3657 89.2692C88.5121 89.2692 88.6584 89.2692 88.7682 89.2692C88.878 89.2692 88.9512 89.3056 88.9877 89.3056C89.0243 89.3056 89.0975 89.3421 89.0975 89.3786C89.1341 89.415 89.1341 89.4515 89.1341 89.488V96.6718H89.1707Z" fill="#005390"/>
    <path d="M97.9158 96.6718C97.9158 96.7083 97.9158 96.7448 97.8792 96.7812C97.8426 96.8177 97.806 96.8177 97.7328 96.8542C97.6597 96.8906 97.5865 96.8906 97.4767 96.8906C97.3669 96.8906 97.2206 96.8906 97.0742 96.8906C96.9278 96.8906 96.7815 96.8906 96.6717 96.8906C96.562 96.8906 96.4888 96.8542 96.4156 96.8542C96.3424 96.8542 96.3058 96.8177 96.2692 96.7812C96.2326 96.7448 96.2326 96.7083 96.2326 96.6718V92.6606C96.2326 92.5147 96.2326 92.3688 96.2326 92.223C96.2326 92.0771 96.2326 91.9312 96.2692 91.8218C96.2326 91.8948 96.196 91.9312 96.1595 92.0042C96.1229 92.0771 96.0497 92.15 96.0131 92.223C95.9765 92.2959 95.9033 92.3688 95.8301 92.4782C95.757 92.5512 95.7204 92.6606 95.6472 92.7335L92.7931 96.6718C92.7566 96.7083 92.72 96.7448 92.6834 96.7812C92.6468 96.8177 92.6102 96.8542 92.537 96.8542C92.4638 96.8542 92.4272 96.8906 92.3175 96.8906C92.2443 96.8906 92.1345 96.8906 91.9882 96.8906C91.8418 96.8906 91.6954 96.8906 91.5857 96.8906C91.4759 96.8906 91.4027 96.8542 91.3661 96.8542C91.3295 96.8542 91.2563 96.8177 91.2563 96.7812C91.2563 96.7448 91.2198 96.7083 91.2198 96.6718V89.488C91.2198 89.4515 91.2198 89.4151 91.2563 89.3786C91.2929 89.3421 91.3295 89.3421 91.4027 89.3057C91.4759 89.2692 91.5491 89.2692 91.6588 89.2692C91.7686 89.2692 91.915 89.2692 92.0613 89.2692C92.2077 89.2692 92.3541 89.2692 92.4638 89.2692C92.5736 89.2692 92.6468 89.3057 92.72 89.3057C92.7931 89.3421 92.8297 89.3421 92.8663 89.3786C92.9029 89.4151 92.9029 89.4515 92.9029 89.488V93.5357C92.9029 93.6451 92.9029 93.791 92.9029 93.9369C92.9029 94.0827 92.9029 94.2286 92.8663 94.338C92.9395 94.2286 93.0127 94.0827 93.1225 93.9004C93.2322 93.7181 93.342 93.5722 93.4518 93.4264L96.3058 89.488C96.3424 89.4515 96.379 89.4151 96.4156 89.3786C96.4522 89.3421 96.4888 89.3421 96.5619 89.3057C96.6351 89.2692 96.6717 89.2692 96.7815 89.2692C96.8913 89.2692 96.9644 89.2692 97.1108 89.2692C97.2572 89.2692 97.4035 89.2692 97.5133 89.2692C97.6231 89.2692 97.6963 89.3057 97.7328 89.3057C97.7694 89.3057 97.8426 89.3421 97.8426 89.3786C97.8792 89.4151 97.8792 89.4515 97.8792 89.488V96.6718H97.9158ZM96.9644 87.2271C96.9644 87.4459 96.9279 87.6647 96.8547 87.847C96.7815 88.0293 96.6351 88.2117 96.4522 88.3575C96.2692 88.5034 96.0497 88.6128 95.757 88.7222C95.4642 88.8316 95.0983 88.8681 94.6958 88.8681C94.2933 88.8681 93.9274 88.8316 93.6347 88.7587C93.342 88.6857 93.1225 88.5763 92.9395 88.4305C92.7566 88.2846 92.6102 88.1023 92.537 87.92C92.4638 87.7012 92.4272 87.4824 92.4272 87.2636C92.4272 87.1906 92.4272 87.1542 92.4638 87.1177C92.5004 87.0812 92.537 87.0448 92.5736 87.0448C92.6102 87.0448 92.72 87.0083 92.7931 87.0083C92.9029 87.0083 93.0127 87.0083 93.159 87.0083C93.3054 87.0083 93.4152 87.0083 93.4884 87.0083C93.5615 87.0083 93.6347 87.0448 93.7079 87.0448C93.7445 87.0812 93.7811 87.0812 93.8177 87.1542C93.8543 87.1906 93.8543 87.2271 93.8543 87.3C93.8543 87.4094 93.8909 87.4824 93.9274 87.5553C93.964 87.6282 94.0372 87.7012 94.1104 87.7741C94.1836 87.847 94.2933 87.8835 94.4031 87.92C94.5129 87.9564 94.6593 87.9929 94.769 87.9929C94.9154 87.9929 95.0252 87.9564 95.1349 87.92C95.2447 87.8835 95.3545 87.847 95.4276 87.7741C95.5008 87.7012 95.574 87.6282 95.6106 87.5553C95.6472 87.4824 95.6838 87.373 95.6838 87.2636C95.6838 87.2271 95.6838 87.1906 95.7204 87.1542C95.7204 87.1177 95.757 87.0812 95.8301 87.0812C95.8667 87.0448 95.9399 87.0448 96.0131 87.0448C96.0863 87.0448 96.196 87.0448 96.3424 87.0448C96.4888 87.0448 96.6351 87.0448 96.7083 87.0448C96.8181 87.0448 96.8913 87.0812 96.9279 87.0812C96.9644 87.0812 97.0376 87.1177 97.0376 87.1542C96.9279 87.1177 96.9644 87.1906 96.9644 87.2271Z" fill="#005390"/>
    <path d="M107.137 94.7755C106.954 95.2131 106.771 95.5778 106.588 95.8695C106.405 96.1613 106.222 96.38 106.002 96.5624C105.783 96.7447 105.563 96.8541 105.344 96.927C105.087 97 104.831 97.0364 104.502 97.0364C104.392 97.0364 104.283 97.0364 104.173 97C104.063 97 103.953 96.9635 103.88 96.927C103.807 96.8906 103.697 96.8906 103.624 96.8541C103.551 96.8176 103.514 96.7812 103.478 96.7812C103.441 96.7447 103.404 96.7083 103.404 96.7083C103.368 96.6718 103.368 96.6353 103.368 96.5624C103.368 96.4894 103.331 96.453 103.331 96.3436C103.331 96.2707 103.331 96.1613 103.331 96.0154C103.331 95.7966 103.331 95.6143 103.368 95.5413C103.404 95.4319 103.478 95.3955 103.551 95.3955C103.587 95.3955 103.624 95.3955 103.66 95.4319C103.697 95.4684 103.77 95.5049 103.843 95.5049C103.917 95.5413 103.99 95.5778 104.063 95.5778C104.136 95.6143 104.246 95.6143 104.356 95.6143C104.429 95.6143 104.539 95.6143 104.612 95.5778C104.685 95.5778 104.758 95.5413 104.831 95.4684C104.905 95.4319 104.978 95.359 105.051 95.2496C105.124 95.1402 105.197 95.0308 105.27 94.8849L102.563 89.7797C102.49 89.6703 102.453 89.5609 102.453 89.488C102.453 89.415 102.453 89.3421 102.526 89.3056C102.563 89.2692 102.673 89.2327 102.782 89.2327C102.892 89.2327 103.075 89.1962 103.258 89.1962C103.441 89.1962 103.624 89.1962 103.734 89.1962C103.843 89.1962 103.953 89.2327 104.026 89.2327C104.1 89.2692 104.136 89.3056 104.173 89.3421C104.209 89.3786 104.246 89.4515 104.283 89.5244L105.417 91.8218C105.527 92.0771 105.673 92.3323 105.783 92.5511C105.892 92.8064 106.002 93.0616 106.112 93.2804H106.149C106.222 93.0252 106.332 92.7699 106.405 92.5146C106.515 92.2594 106.588 92.0041 106.734 91.7124L107.685 89.3786C107.722 89.3056 107.722 89.2692 107.759 89.2327C107.795 89.1962 107.832 89.1598 107.905 89.1598C107.978 89.1233 108.051 89.1233 108.198 89.1233C108.307 89.1233 108.454 89.1233 108.673 89.1233C108.856 89.1233 109.003 89.1233 109.149 89.1233C109.259 89.1233 109.332 89.1598 109.405 89.1962C109.442 89.2327 109.478 89.2692 109.478 89.3421C109.478 89.415 109.442 89.488 109.405 89.5609L107.137 94.7755Z" fill="#005390"/>
    <path d="M117.053 96.6718C117.053 96.7083 117.053 96.7447 117.016 96.7812C116.979 96.8177 116.943 96.8541 116.87 96.8541C116.796 96.8541 116.723 96.8906 116.613 96.8906C116.504 96.8906 116.357 96.8906 116.211 96.8906C116.065 96.8906 115.918 96.8906 115.808 96.8906C115.699 96.8906 115.625 96.8541 115.552 96.8541C115.479 96.8541 115.443 96.8177 115.406 96.7812C115.369 96.7447 115.369 96.7083 115.369 96.6718V93.6086H112.332V96.6718C112.332 96.7083 112.332 96.7447 112.296 96.7812C112.259 96.8177 112.223 96.8541 112.149 96.8541C112.076 96.8906 112.003 96.8906 111.893 96.8906C111.784 96.8906 111.637 96.8906 111.491 96.8906C111.344 96.8906 111.198 96.8906 111.088 96.8906C110.979 96.8906 110.905 96.8541 110.832 96.8541C110.759 96.8177 110.722 96.8177 110.686 96.7812C110.649 96.7447 110.649 96.7083 110.649 96.6718V89.488C110.649 89.4515 110.649 89.415 110.686 89.3786C110.722 89.3421 110.759 89.3056 110.832 89.3056C110.905 89.2692 110.979 89.2692 111.088 89.2692C111.198 89.2692 111.344 89.2692 111.491 89.2692C111.637 89.2692 111.784 89.2692 111.893 89.2692C112.003 89.2692 112.076 89.3056 112.149 89.3056C112.223 89.3421 112.259 89.3421 112.296 89.3786C112.332 89.415 112.332 89.4515 112.332 89.488V92.2959H115.406V89.488C115.406 89.4515 115.406 89.415 115.443 89.3786C115.479 89.3421 115.516 89.3056 115.589 89.3056C115.662 89.3056 115.735 89.2692 115.845 89.2692C115.955 89.2692 116.101 89.2692 116.248 89.2692C116.394 89.2692 116.54 89.2692 116.65 89.2692C116.76 89.2692 116.833 89.3056 116.906 89.3056C116.979 89.3056 117.016 89.3421 117.053 89.3786C117.089 89.415 117.089 89.4515 117.089 89.488V96.6718H117.053Z" fill="#005390"/>
    <path d="M120.821 96.6718C120.821 96.7083 120.821 96.7447 120.785 96.7812C120.748 96.8177 120.712 96.8541 120.638 96.8541C120.565 96.8906 120.492 96.8906 120.382 96.8906C120.272 96.8906 120.126 96.8906 119.98 96.8906C119.833 96.8906 119.687 96.8906 119.577 96.8906C119.468 96.8906 119.394 96.8541 119.321 96.8541C119.248 96.8177 119.211 96.8177 119.175 96.7812C119.138 96.7447 119.138 96.7083 119.138 96.6718V89.488C119.138 89.4515 119.138 89.415 119.175 89.3786C119.211 89.3421 119.248 89.3056 119.321 89.3056C119.394 89.2692 119.468 89.2692 119.577 89.2692C119.687 89.2692 119.833 89.2692 119.98 89.2692C120.126 89.2692 120.272 89.2692 120.382 89.2692C120.492 89.2692 120.565 89.3056 120.638 89.3056C120.712 89.3421 120.748 89.3421 120.785 89.3786C120.821 89.415 120.821 89.4515 120.821 89.488V96.6718Z" fill="#005390"/>
    <path d="M128.835 94.5933C128.835 94.8485 128.798 95.1038 128.725 95.3226C128.652 95.5414 128.542 95.7237 128.396 95.906C128.249 96.0884 128.103 96.2342 127.883 96.3436C127.7 96.453 127.481 96.5624 127.225 96.6354C127.005 96.7083 126.749 96.7812 126.456 96.8177C126.2 96.8542 125.907 96.8906 125.578 96.8906H123.419C123.273 96.8906 123.163 96.8542 123.053 96.7812C122.944 96.7083 122.907 96.5989 122.907 96.4166V89.7797C122.907 89.5974 122.944 89.488 123.053 89.4151C123.163 89.3421 123.273 89.3057 123.419 89.3057H125.468C125.981 89.3057 126.383 89.3421 126.749 89.4151C127.115 89.488 127.371 89.5974 127.627 89.7797C127.883 89.9256 128.03 90.1444 128.176 90.3996C128.286 90.6549 128.359 90.9466 128.359 91.2748C128.359 91.4572 128.322 91.6395 128.286 91.7854C128.249 91.9312 128.176 92.1136 128.066 92.223C127.956 92.3324 127.847 92.4782 127.7 92.5876C127.554 92.697 127.408 92.77 127.225 92.8429C127.444 92.8794 127.664 92.9523 127.883 93.0617C128.103 93.1711 128.249 93.2805 128.396 93.4263C128.542 93.5722 128.652 93.7545 128.725 93.9733C128.798 94.1192 128.835 94.338 128.835 94.5933ZM126.712 91.3842C126.712 91.2384 126.676 91.0925 126.639 90.9831C126.603 90.8737 126.529 90.7643 126.42 90.6914C126.31 90.6184 126.2 90.5455 126.054 90.509C125.907 90.4726 125.688 90.4361 125.432 90.4361H124.59V92.4053H125.505C125.761 92.4053 125.944 92.3688 126.09 92.3324C126.237 92.2959 126.346 92.223 126.456 92.1136C126.566 92.0042 126.639 91.9312 126.676 91.7854C126.676 91.676 126.712 91.5301 126.712 91.3842ZM127.115 94.6662C127.115 94.4839 127.078 94.338 127.005 94.1921C126.932 94.0463 126.859 93.9369 126.712 93.8275C126.603 93.7181 126.42 93.6451 126.237 93.6087C126.054 93.5722 125.798 93.5357 125.505 93.5357H124.517V95.6872H125.724C125.944 95.6872 126.164 95.6508 126.31 95.6143C126.456 95.5779 126.603 95.5049 126.712 95.432C126.822 95.3591 126.932 95.2496 126.969 95.1038C127.078 94.9579 127.115 94.8121 127.115 94.6662Z" fill="#005390"/>
    <path d="M135.348 96.2707C135.348 96.3801 135.348 96.4895 135.348 96.5624C135.348 96.6354 135.311 96.7083 135.311 96.7448C135.311 96.7812 135.275 96.8177 135.238 96.8542C135.201 96.8906 135.165 96.8906 135.128 96.8906H130.993C130.847 96.8906 130.737 96.8542 130.628 96.7812C130.518 96.7083 130.481 96.5989 130.481 96.4166V89.7797C130.481 89.5974 130.518 89.488 130.628 89.4151C130.737 89.3421 130.847 89.3057 130.993 89.3057H135.055C135.092 89.3057 135.128 89.3057 135.165 89.3421C135.201 89.3786 135.201 89.3786 135.238 89.4515C135.275 89.488 135.275 89.5609 135.275 89.6339C135.275 89.7068 135.275 89.8162 135.275 89.9256C135.275 90.035 135.275 90.1444 135.275 90.2173C135.275 90.2903 135.238 90.3632 135.238 90.3996C135.238 90.4361 135.201 90.4726 135.165 90.509C135.128 90.5455 135.092 90.5455 135.055 90.5455H132.128V92.4053H134.579C134.616 92.4053 134.652 92.4053 134.689 92.4418C134.726 92.4782 134.762 92.5147 134.762 92.5512C134.799 92.5876 134.799 92.6606 134.799 92.7335C134.799 92.8064 134.799 92.9158 134.799 93.0252C134.799 93.1346 134.799 93.244 134.799 93.3169C134.799 93.3899 134.762 93.4628 134.762 93.4993C134.726 93.5357 134.726 93.5722 134.689 93.6087C134.652 93.6451 134.616 93.6451 134.579 93.6451H132.128V95.7966H135.055C135.092 95.7966 135.128 95.7966 135.165 95.8331C135.201 95.8696 135.238 95.906 135.238 95.9425C135.238 95.979 135.275 96.0519 135.275 96.1248C135.348 96.0519 135.348 96.1613 135.348 96.2707Z" fill="#005390"/>
    <path d="M142.739 91.5665C142.739 92.0041 142.666 92.3688 142.519 92.697C142.373 93.0252 142.154 93.3169 141.897 93.5357C141.641 93.7545 141.275 93.9368 140.873 94.0462C140.47 94.1556 139.995 94.2286 139.482 94.2286H138.787V96.6718C138.787 96.7083 138.787 96.7447 138.751 96.7812C138.714 96.8177 138.677 96.8541 138.604 96.8541C138.531 96.8541 138.458 96.8906 138.348 96.8906C138.238 96.8906 138.092 96.8906 137.946 96.8906C137.799 96.8906 137.653 96.8906 137.543 96.8906C137.433 96.8906 137.36 96.8541 137.287 96.8541C137.214 96.8541 137.177 96.8177 137.141 96.7812C137.104 96.7447 137.104 96.7083 137.104 96.6718V89.8162C137.104 89.6338 137.141 89.488 137.25 89.415C137.36 89.3056 137.507 89.2692 137.653 89.2692H139.592C139.775 89.2692 139.958 89.2692 140.141 89.3056C140.324 89.3056 140.507 89.3421 140.763 89.3786C141.019 89.415 141.239 89.5244 141.495 89.6338C141.751 89.7432 141.971 89.9256 142.154 90.1079C142.336 90.2902 142.483 90.509 142.556 90.7643C142.666 90.9831 142.739 91.2748 142.739 91.5665ZM140.983 91.6759C140.983 91.4207 140.946 91.2019 140.836 91.0195C140.726 90.8372 140.617 90.7278 140.47 90.6549C140.324 90.5819 140.178 90.509 139.995 90.509C139.848 90.4725 139.665 90.4725 139.482 90.4725H138.787V93.0616H139.519C139.775 93.0616 139.995 93.0252 140.178 92.9522C140.361 92.8793 140.507 92.8064 140.617 92.6605C140.726 92.5511 140.8 92.4053 140.873 92.2229C140.946 92.0771 140.983 91.8947 140.983 91.6759Z" fill="#005390"/>
    <path d="M149.984 95.7237C149.984 95.8331 149.984 95.906 149.984 95.9789C149.984 96.0519 149.984 96.0883 149.947 96.1613C149.947 96.1977 149.911 96.2706 149.911 96.2706C149.911 96.2706 149.874 96.3436 149.801 96.38C149.764 96.4165 149.655 96.4894 149.545 96.5624C149.435 96.6353 149.252 96.7082 149.069 96.7812C148.886 96.8541 148.667 96.8906 148.41 96.927C148.154 96.9635 147.898 97 147.605 97C147.057 97 146.544 96.927 146.105 96.7447C145.666 96.5988 145.264 96.3436 144.971 96.0154C144.642 95.6872 144.422 95.2861 144.239 94.812C144.056 94.3379 143.983 93.791 143.983 93.1346C143.983 92.4782 144.093 91.9312 144.276 91.4207C144.459 90.9101 144.715 90.509 145.044 90.1443C145.373 89.8161 145.776 89.5609 146.252 89.3786C146.727 89.1962 147.24 89.1233 147.788 89.1233C148.008 89.1233 148.228 89.1233 148.447 89.1598C148.667 89.1962 148.85 89.2327 149.033 89.3056C149.215 89.3786 149.362 89.415 149.508 89.488C149.655 89.5609 149.764 89.6338 149.801 89.6703C149.874 89.7067 149.911 89.7797 149.911 89.8162C149.911 89.8526 149.947 89.8891 149.947 89.962C149.947 90.0349 149.984 90.0714 149.984 90.1443C149.984 90.2173 149.984 90.3267 149.984 90.4361C149.984 90.5455 149.984 90.6549 149.984 90.7278C149.984 90.8007 149.947 90.8737 149.947 90.9101C149.947 90.9466 149.911 90.9831 149.874 91.0195C149.837 91.056 149.801 91.056 149.764 91.056C149.691 91.056 149.618 91.0195 149.508 90.9466C149.398 90.8737 149.289 90.8007 149.142 90.7278C148.996 90.6549 148.813 90.5819 148.593 90.509C148.374 90.4361 148.118 90.3996 147.825 90.3996C147.496 90.3996 147.203 90.4725 146.947 90.5819C146.691 90.6913 146.471 90.8737 146.288 91.1289C146.105 91.3477 145.959 91.6395 145.886 91.9676C145.776 92.2958 145.739 92.6605 145.739 93.0616C145.739 93.4992 145.776 93.9003 145.886 94.2285C145.996 94.5567 146.142 94.812 146.325 95.0308C146.508 95.2496 146.727 95.3955 146.983 95.5049C147.24 95.6143 147.532 95.6507 147.862 95.6507C148.154 95.6507 148.41 95.6143 148.63 95.5413C148.85 95.4684 149.033 95.3955 149.179 95.3225C149.325 95.2496 149.472 95.1767 149.545 95.1037C149.655 95.0308 149.728 94.9943 149.764 94.9943C149.801 94.9943 149.837 94.9943 149.874 95.0308C149.911 95.0308 149.911 95.0673 149.947 95.1402C149.984 95.2131 149.984 95.2496 149.984 95.3225C149.984 95.4684 149.984 95.5778 149.984 95.7237Z" fill="#005390"/>
    <path d="M158.143 96.6718C158.143 96.7083 158.143 96.7447 158.107 96.7812C158.07 96.8177 158.034 96.8177 157.961 96.8541C157.887 96.8906 157.814 96.8906 157.704 96.8906C157.595 96.8906 157.448 96.8906 157.302 96.8906C157.156 96.8906 157.009 96.8906 156.899 96.8906C156.79 96.8906 156.716 96.8541 156.643 96.8541C156.57 96.8541 156.533 96.8177 156.497 96.7812C156.46 96.7447 156.46 96.7083 156.46 96.6718V92.6605C156.46 92.5147 156.46 92.3688 156.46 92.2229C156.46 92.0771 156.46 91.9312 156.497 91.8218C156.46 91.8947 156.424 91.9312 156.387 92.0041C156.351 92.0771 156.277 92.15 156.241 92.2229C156.204 92.2959 156.131 92.3688 156.058 92.4782C155.985 92.5511 155.948 92.6605 155.875 92.7334L153.021 96.6718C152.984 96.7083 152.948 96.7447 152.911 96.7812C152.874 96.8177 152.838 96.8541 152.765 96.8541C152.691 96.8541 152.655 96.8906 152.545 96.8906C152.472 96.8906 152.362 96.8906 152.216 96.8906C152.069 96.8906 151.923 96.8906 151.813 96.8906C151.704 96.8906 151.63 96.8541 151.594 96.8541C151.557 96.8541 151.484 96.8177 151.484 96.7812C151.484 96.7447 151.447 96.7083 151.447 96.6718V89.488C151.447 89.4515 151.447 89.415 151.484 89.3786C151.521 89.3421 151.557 89.3421 151.63 89.3056C151.704 89.2692 151.777 89.2692 151.887 89.2692C151.996 89.2692 152.143 89.2692 152.289 89.2692C152.435 89.2692 152.582 89.2692 152.691 89.2692C152.801 89.2692 152.874 89.3056 152.948 89.3056C153.021 89.3421 153.057 89.3421 153.094 89.3786C153.131 89.415 153.131 89.4515 153.131 89.488V93.5357C153.131 93.6451 153.131 93.791 153.131 93.9368C153.131 94.0827 153.131 94.2286 153.094 94.338C153.167 94.2286 153.24 94.0827 153.35 93.9004C153.46 93.718 153.57 93.5722 153.679 93.4263L156.533 89.488C156.57 89.4515 156.607 89.415 156.643 89.3786C156.68 89.3421 156.716 89.3421 156.79 89.3056C156.863 89.2692 156.899 89.2692 157.009 89.2692C157.119 89.2692 157.192 89.2692 157.338 89.2692C157.485 89.2692 157.631 89.2692 157.741 89.2692C157.851 89.2692 157.924 89.3056 157.961 89.3056C157.997 89.3056 158.07 89.3421 158.07 89.3786C158.107 89.415 158.107 89.4515 158.107 89.488V96.6718H158.143Z" fill="#005390"/>
    <path d="M165.681 89.8891C165.681 89.9985 165.681 90.1079 165.681 90.1808C165.681 90.2537 165.645 90.3267 165.645 90.3631C165.608 90.3996 165.608 90.4361 165.571 90.4725C165.535 90.509 165.498 90.509 165.462 90.509H163.413V96.6353C163.413 96.6718 163.413 96.7082 163.376 96.7447C163.339 96.7812 163.303 96.8176 163.23 96.8176C163.156 96.8176 163.083 96.8541 162.973 96.8541C162.864 96.8541 162.717 96.8541 162.571 96.8541C162.425 96.8541 162.278 96.8541 162.168 96.8541C162.059 96.8541 161.985 96.8176 161.912 96.8176C161.839 96.8176 161.803 96.7812 161.766 96.7447C161.729 96.7082 161.729 96.6718 161.729 96.6353V90.509H159.68C159.644 90.509 159.607 90.509 159.571 90.4725C159.534 90.4361 159.534 90.3996 159.497 90.3631C159.461 90.3267 159.461 90.2537 159.461 90.1808C159.461 90.1079 159.461 89.9985 159.461 89.8891C159.461 89.7797 159.461 89.6703 159.461 89.5974C159.461 89.5244 159.497 89.4515 159.497 89.415C159.534 89.3786 159.534 89.3421 159.571 89.3056C159.607 89.2692 159.644 89.2692 159.68 89.2692H165.425C165.462 89.2692 165.498 89.2692 165.535 89.3056C165.571 89.3421 165.608 89.3786 165.608 89.415C165.645 89.4515 165.645 89.5244 165.645 89.5974C165.681 89.7068 165.681 89.7797 165.681 89.8891Z" fill="#005390"/>
    <path d="M171.828 96.2707C171.828 96.3801 171.828 96.4895 171.828 96.5624C171.828 96.6354 171.792 96.7083 171.792 96.7448C171.792 96.7812 171.755 96.8177 171.719 96.8542C171.682 96.8906 171.645 96.8906 171.609 96.8906H167.511C167.364 96.8906 167.254 96.8542 167.145 96.7812C167.035 96.7083 166.998 96.5989 166.998 96.4166V89.7797C166.998 89.5974 167.035 89.488 167.145 89.4151C167.254 89.3421 167.364 89.3057 167.511 89.3057H171.572C171.609 89.3057 171.645 89.3057 171.682 89.3421C171.719 89.3786 171.719 89.3786 171.755 89.4515C171.792 89.488 171.792 89.5609 171.792 89.6339C171.792 89.7068 171.792 89.8162 171.792 89.9256C171.792 90.035 171.792 90.1444 171.792 90.2173C171.792 90.2903 171.755 90.3632 171.755 90.3996C171.755 90.4361 171.719 90.4726 171.682 90.509C171.645 90.5455 171.609 90.5455 171.572 90.5455H168.645V92.4053H171.096C171.133 92.4053 171.17 92.4053 171.206 92.4418C171.243 92.4782 171.279 92.5147 171.279 92.5512C171.316 92.5876 171.316 92.6606 171.316 92.7335C171.316 92.8064 171.316 92.9158 171.316 93.0252C171.316 93.1346 171.316 93.244 171.316 93.3169C171.316 93.3899 171.279 93.4628 171.279 93.4993C171.243 93.5357 171.243 93.5722 171.206 93.6087C171.17 93.6451 171.133 93.6451 171.096 93.6451H168.645V95.7966H171.572C171.609 95.7966 171.645 95.7966 171.682 95.8331C171.719 95.8696 171.755 95.906 171.755 95.9425C171.755 95.979 171.792 96.0519 171.792 96.1248C171.828 96.0519 171.828 96.1613 171.828 96.2707Z" fill="#005390"/>
    <path d="M179 89.8891C179 89.9985 179 90.1079 179 90.1808C179 90.2537 178.963 90.3267 178.963 90.3631C178.927 90.3996 178.927 90.4361 178.89 90.4725C178.854 90.509 178.817 90.509 178.78 90.509H176.731V96.6353C176.731 96.6718 176.731 96.7082 176.695 96.7447C176.658 96.7812 176.622 96.8176 176.548 96.8176C176.475 96.8176 176.402 96.8541 176.292 96.8541C176.183 96.8541 176.036 96.8541 175.89 96.8541C175.743 96.8541 175.597 96.8541 175.487 96.8541C175.378 96.8541 175.304 96.8176 175.231 96.8176C175.158 96.8176 175.121 96.7812 175.085 96.7447C175.048 96.7082 175.048 96.6718 175.048 96.6353V90.509H172.999C172.963 90.509 172.926 90.509 172.889 90.4725C172.853 90.4361 172.853 90.3996 172.816 90.3631C172.78 90.3267 172.78 90.2537 172.78 90.1808C172.78 90.1079 172.78 89.9985 172.78 89.8891C172.78 89.7797 172.78 89.6703 172.78 89.5974C172.78 89.5244 172.816 89.4515 172.816 89.415C172.853 89.3786 172.853 89.3421 172.889 89.3056C172.926 89.2692 172.963 89.2692 172.999 89.2692H178.744C178.78 89.2692 178.817 89.2692 178.854 89.3056C178.89 89.3421 178.927 89.3786 178.927 89.415C178.963 89.4515 178.963 89.5244 178.963 89.5974C179 89.7068 179 89.7797 179 89.8891Z" fill="#005390"/>
</svg>
