<svg width="19" height="18" viewBox="0 0 19 18" fill="none" xmlns="http://www.w3.org/2000/svg">
    <path d="M4.29583 17.488C4.19983 17.488 4.10383 17.44 4.00783 17.392C3.81583 17.248 3.76783 17.056 3.81583 16.864L5.68783 11.104L0.791832 7.50397C0.599832 7.35997 0.551832 7.16797 0.599832 6.97597C0.647832 6.78397 0.839832 6.63997 1.07983 6.63997H7.17583L8.99983 0.831972C9.04783 0.639972 9.23983 0.495972 9.47983 0.495972C9.71983 0.495972 9.86383 0.639972 9.95983 0.831972L11.8318 6.63997H17.9278C18.1198 6.63997 18.3118 6.73597 18.4078 6.92797C18.5038 7.11997 18.4078 7.35997 18.2158 7.45597L13.3198 11.008L15.1918 16.768C15.2398 16.96 15.1918 17.2 14.9998 17.296C14.8078 17.392 14.6158 17.44 14.4238 17.296L9.47983 13.84L4.58383 17.392C4.48783 17.44 4.39183 17.488 4.29583 17.488ZM9.47983 12.736C9.57583 12.736 9.67183 12.784 9.76783 12.832L13.7518 15.76L12.2158 11.056C12.1678 10.864 12.2158 10.624 12.4078 10.528L16.3918 7.59997H11.4478C11.2558 7.59997 11.0638 7.45597 10.9678 7.26397L9.47983 2.55997L7.94383 7.26397C7.89583 7.45597 7.70383 7.59997 7.46383 7.59997H2.51983L6.50383 10.528C6.69583 10.672 6.74383 10.864 6.69583 11.056L5.20783 15.76L9.19183 12.832C9.28783 12.784 9.38383 12.736 9.47983 12.736Z" fill="#AAAAAA"/>
</svg>